<?xml version="1.0" encoding="utf-8"?>
<svg version="1.1" xmlns:xlink="http://www.w3.org/1999/xlink" width="300px" height="40px" xmlns="http://www.w3.org/2000/svg">
  <g transform="matrix(1 0 0 1 -613 -578 )">
    <path d="M 298.9411764705882 0.4313725490195566  L 0.24836601307185902 38.33986928104571  L 28.35294117647061 27.5  L 51.228758169934615 27.5  L 85.86928104575168 18.73202614379079  L 108.74509803921569 27.882352941176464  L 154.49673202614383 9.58169934640523  L 183.90849673202615 14.810457516339852  L 228.3529411764706 18.73202614379079  L 241.42483660130722 9  L 264.9542483660131 5.660130718954292  L 279.9869281045751 9  L 294.3660130718954 0.4313725490195566  L 298.9411764705882 0.4313725490195566  Z " fill-rule="nonzero" fill="#ffffff" stroke="none" transform="matrix(1 0 0 1 613 578 )" />
    <path d="M 0.24836601307185902 38.33986928104571  L 28.35294117647061 27.5  L 51.228758169934615 27.5  L 85.86928104575168 18.73202614379079  L 108.74509803921569 27.882352941176464  L 154.49673202614383 9.58169934640523  L 183.90849673202615 14.810457516339852  L 228.3529411764706 18.73202614379079  L 241.42483660130722 9  L 264.9542483660131 5.660130718954292  L 279.9869281045751 9  L 294.3660130718954 0.4313725490195566  L 298.9411764705882 0.4313725490195566  " stroke-width="1" stroke="#d9001b" fill="none" transform="matrix(1 0 0 1 613 578 )" />
  </g>
</svg>