<?xml version="1.0" encoding="utf-8"?>
<svg version="1.1" xmlns:xlink="http://www.w3.org/1999/xlink" width="300px" height="69px" xmlns="http://www.w3.org/2000/svg">
  <g transform="matrix(1 0 0 1 -614 -849 )">
    <path d="M 298.41830065359477 67.99346405228755  L 0.3790849673202956 0.673202614379079  L 46.78431372549016 30.0849673202614  L 102.33986928104571 25.50980392156862  L 127.83006535947708 36.620915032679704  L 177.50326797385614 45.117647058823536  L 231.75163398692814 39.888888888888914  L 260.5098039215686 46  L 267.69934640522877 54.92156862745094  L 282.7320261437908 58.84313725490199  L 298.41830065359477 67.99346405228755  Z " fill-rule="nonzero" fill="#ffffff" stroke="none" transform="matrix(1 0 0 1 614 849 )" />
    <path d="M 0.3790849673202956 0.673202614379079  L 46.78431372549016 30.0849673202614  L 102.33986928104571 25.50980392156862  L 127.83006535947708 36.620915032679704  L 177.50326797385614 45.117647058823536  L 231.75163398692814 39.888888888888914  L 260.5098039215686 46  L 267.69934640522877 54.92156862745094  L 282.7320261437908 58.84313725490199  L 298.41830065359477 67.99346405228755  " stroke-width="1" stroke="#63a103" fill="none" transform="matrix(1 0 0 1 614 849 )" />
  </g>
</svg>