<?xml version="1.0" encoding="utf-8"?>
<svg version="1.1" xmlns:xlink="http://www.w3.org/1999/xlink" width="300px" height="83px" xmlns="http://www.w3.org/2000/svg">
  <g transform="matrix(1 0 0 1 -614 -1005 )">
    <path d="M 298.41830065359477 22.450980392156907  L 0.3790849673202956 81.27450980392155  L 45.47712418300648 42.05882352941171  L 80.77124183006538 17.22222222222217  L 101.03267973856202 0.882352941176464  L 125.86928104575168 10.032679738562024  L 138.28758169934645 22.450980392156907  L 185.34640522875816 32.25490196078431  L 236.32679738562092 22.450980392156907  L 263.7777777777777 17.22222222222217  L 277.50326797385617 23.5  L 290.5751633986928 23.5  L 298.41830065359477 22.450980392156907  Z " fill-rule="nonzero" fill="#ffffff" stroke="none" transform="matrix(1 0 0 1 614 1005 )" />
    <path d="M 0.3790849673202956 81.27450980392155  L 45.47712418300648 42.05882352941171  L 80.77124183006538 17.22222222222217  L 101.03267973856202 0.882352941176464  L 125.86928104575168 10.032679738562024  L 138.28758169934645 22.450980392156907  L 185.34640522875816 32.25490196078431  L 236.32679738562092 22.450980392156907  L 263.7777777777777 17.22222222222217  L 277.50326797385617 23.5  L 290.5751633986928 23.5  L 298.41830065359477 22.450980392156907  " stroke-width="1" stroke="#d9001b" fill="none" transform="matrix(1 0 0 1 614 1005 )" />
  </g>
</svg>