<?xml version="1.0" encoding="utf-8"?>
<svg version="1.1" xmlns:xlink="http://www.w3.org/1999/xlink" width="299px" height="73px" xmlns="http://www.w3.org/2000/svg">
  <g transform="matrix(1 0 0 1 -614 -1272 )">
    <path d="M 297.1111111111111 0.5490196078430927  L 0.37908496732029556 47.607843137254804  L 10.83660130718954 53.49019607843138  L 29.137254901960773 62.64052287581694  L 65.0849673202614 63.5  L 83.38562091503263 63.5  L 95.8039215686274 67.21568627450984  L 101.68627450980387 71.7908496732025  L 136.32679738562092 59.37254901960773  L 170.31372549019602 47.607843137254804  L 219.9869281045751 41.07189542483661  L 242.86274509803923 28  L 256.5882352941177 15.58169934640523  L 271.6209150326797 15  L 287.9607843137255 8.392156862744969  L 297.1111111111111 0.5490196078430927  Z " fill-rule="nonzero" fill="#ffffff" stroke="none" transform="matrix(1 0 0 1 614 1272 )" />
    <path d="M 0.37908496732029556 47.607843137254804  L 10.83660130718954 53.49019607843138  L 29.137254901960773 62.64052287581694  L 65.0849673202614 63.5  L 83.38562091503263 63.5  L 95.8039215686274 67.21568627450984  L 101.68627450980387 71.7908496732025  L 136.32679738562092 59.37254901960773  L 170.31372549019602 47.607843137254804  L 219.9869281045751 41.07189542483661  L 242.86274509803923 28  L 256.5882352941177 15.58169934640523  L 271.6209150326797 15  L 287.9607843137255 8.392156862744969  L 297.1111111111111 0.5490196078430927  " stroke-width="1" stroke="#d9001b" fill="none" transform="matrix(1 0 0 1 614 1272 )" />
  </g>
</svg>