<?xml version="1.0" encoding="utf-8"?>
<svg version="1.1" xmlns:xlink="http://www.w3.org/1999/xlink" width="302px" height="151px" xmlns="http://www.w3.org/2000/svg">
  <g transform="matrix(1 0 0 1 -613 -1434 )">
    <path d="M 300.0718954248366 58.81045751633974  L 0.7254901960784538 100.64052287581694  L 8.56862745098033 92.79738562091507  L 17.06535947712416 66.65359477124184  L 34.71241830065355 36.58823529411757  L 52.359477124182945 15.019607843137237  L 58.89542483660125 0.6405228758169415  L 68.04575163398692 15.019607843137237  L 75.23529411764707 36.58823529411757  L 80.4640522875817 58.81045751633974  L 84.38562091503263 58.81045751633974  L 92.22875816993462 66.65359477124184  L 93.5 84.95424836601296  L 93.5 113.71241830065354  L 97.45751633986924 121.55555555555543  L 98 128.09150326797385  L 98 137.2418300653594  L 98 143.77777777777783  L 103.99346405228755 149.66013071895418  L 128.17647058823525 137.2418300653594  L 159.5490196078431 128.09150326797385  L 199.41830065359477 107.83006535947719  L 249.7450980392157 78.41830065359477  L 263.47058823529414 66.65359477124184  L 284.38562091503263 63.385620915032625  L 296.15032679738556 58.81045751633974  L 300.0718954248366 58.81045751633974  Z " fill-rule="nonzero" fill="#ffffff" stroke="none" transform="matrix(1 0 0 1 613 1434 )" />
    <path d="M 0.7254901960784538 100.64052287581694  L 8.56862745098033 92.79738562091507  L 17.06535947712416 66.65359477124184  L 34.71241830065355 36.58823529411757  L 52.359477124182945 15.019607843137237  L 58.89542483660125 0.6405228758169415  L 68.04575163398692 15.019607843137237  L 75.23529411764707 36.58823529411757  L 80.4640522875817 58.81045751633974  L 84.38562091503263 58.81045751633974  L 92.22875816993462 66.65359477124184  L 93.5 84.95424836601296  L 93.5 113.71241830065354  L 97.45751633986924 121.55555555555543  L 98 128.09150326797385  L 98 137.2418300653594  L 98 143.77777777777783  L 103.99346405228755 149.66013071895418  L 128.17647058823525 137.2418300653594  L 159.5490196078431 128.09150326797385  L 199.41830065359477 107.83006535947719  L 249.7450980392157 78.41830065359477  L 263.47058823529414 66.65359477124184  L 284.38562091503263 63.385620915032625  L 296.15032679738556 58.81045751633974  L 300.0718954248366 58.81045751633974  " stroke-width="1" stroke="#d9001b" fill="none" transform="matrix(1 0 0 1 613 1434 )" />
  </g>
</svg>