<?xml version="1.0" encoding="utf-8"?>
<svg version="1.1" xmlns:xlink="http://www.w3.org/1999/xlink" width="18px" height="18px" preserveAspectRatio="xMinYMid meet" viewBox="165 178  18 16" xmlns="http://www.w3.org/2000/svg">
  <path d="M 174.5 188  L 174.5 224  " stroke-width="1" stroke="#0099cc" fill="none" />
  <path d="M 174.5 183  A 3 3 0 0 0 171.5 186 A 3 3 0 0 0 174.5 189 A 3 3 0 0 0 177.5 186 A 3 3 0 0 0 174.5 183 Z M 174.5 184  A 2 2 0 0 1 176.5 186 A 2 2 0 0 1 174.5 188 A 2 2 0 0 1 172.5 186 A 2 2 0 0 1 174.5 184 Z M 168.2 223  L 174.5 229  L 180.8 223  L 168.2 223  Z M 170.6 224  L 178.4 224  L 174.5 227.5  L 170.6 224  Z " fill-rule="nonzero" fill="#0099cc" stroke="none" />
</svg>