<?xml version="1.0" encoding="utf-8"?>
<svg version="1.1" xmlns:xlink="http://www.w3.org/1999/xlink" width="10px" height="34px" preserveAspectRatio="xMidYMin meet" viewBox="420 405  8 34" xmlns="http://www.w3.org/2000/svg">
  <path d="M 174.5 399  L 174.5 410.5  L 424.5 410.5  L 424.5 435  " stroke-width="1" stroke="#0099cc" fill="none" />
  <path d="M 174.5 394  A 3 3 0 0 0 171.5 397 A 3 3 0 0 0 174.5 400 A 3 3 0 0 0 177.5 397 A 3 3 0 0 0 174.5 394 Z M 174.5 395  A 2 2 0 0 1 176.5 397 A 2 2 0 0 1 174.5 399 A 2 2 0 0 1 172.5 397 A 2 2 0 0 1 174.5 395 Z M 418.2 434  L 424.5 440  L 430.8 434  L 418.2 434  Z M 420.6 435  L 428.4 435  L 424.5 438.5  L 420.6 435  Z " fill-rule="nonzero" fill="#0099cc" stroke="none" />
</svg>