<?xml version="1.0" encoding="utf-8"?>
<svg version="1.1" xmlns:xlink="http://www.w3.org/1999/xlink" width="260px" height="10px" preserveAspectRatio="xMinYMid meet" viewBox="419 516  260 8" xmlns="http://www.w3.org/2000/svg">
  <path d="M 424.5 504  L 424.5 520.5  L 674.5 520.5  L 674.5 540  " stroke-width="1" stroke="#0099cc" fill="none" />
  <path d="M 424.5 499  A 3 3 0 0 0 421.5 502 A 3 3 0 0 0 424.5 505 A 3 3 0 0 0 427.5 502 A 3 3 0 0 0 424.5 499 Z M 424.5 500  A 2 2 0 0 1 426.5 502 A 2 2 0 0 1 424.5 504 A 2 2 0 0 1 422.5 502 A 2 2 0 0 1 424.5 500 Z M 668.2 539  L 674.5 545  L 680.8 539  L 668.2 539  Z M 670.6 540  L 678.4 540  L 674.5 543.5  L 670.6 540  Z " fill-rule="nonzero" fill="#0099cc" stroke="none" />
</svg>