<?xml version="1.0" encoding="utf-8"?>
<svg version="1.1" xmlns:xlink="http://www.w3.org/1999/xlink" width="260px" height="10px" preserveAspectRatio="xMinYMid meet" viewBox="669 616  260 8" xmlns="http://www.w3.org/2000/svg">
  <path d="M 674.5 609  L 674.5 620.5  L 924.5 620.5  L 924.5 629  " stroke-width="1" stroke="#0099cc" fill="none" />
  <path d="M 674.5 604  A 3 3 0 0 0 671.5 607 A 3 3 0 0 0 674.5 610 A 3 3 0 0 0 677.5 607 A 3 3 0 0 0 674.5 604 Z M 674.5 605  A 2 2 0 0 1 676.5 607 A 2 2 0 0 1 674.5 609 A 2 2 0 0 1 672.5 607 A 2 2 0 0 1 674.5 605 Z M 918.2 628  L 924.5 634  L 930.8 628  L 918.2 628  Z M 920.6 629  L 928.4 629  L 924.5 632.5  L 920.6 629  Z " fill-rule="nonzero" fill="#0099cc" stroke="none" />
</svg>