<?xml version="1.0" encoding="utf-8"?>
<svg version="1.1" xmlns:xlink="http://www.w3.org/1999/xlink" width="18px" height="19px" preserveAspectRatio="xMidYMin meet" viewBox="166 321  16 19" xmlns="http://www.w3.org/2000/svg">
  <path d="M 174.5 293  L 174.5 330  " stroke-width="1" stroke="#0099cc" fill="none" />
  <path d="M 174.5 288  A 3 3 0 0 0 171.5 291 A 3 3 0 0 0 174.5 294 A 3 3 0 0 0 177.5 291 A 3 3 0 0 0 174.5 288 Z M 174.5 289  A 2 2 0 0 1 176.5 291 A 2 2 0 0 1 174.5 293 A 2 2 0 0 1 172.5 291 A 2 2 0 0 1 174.5 289 Z M 168.2 329  L 174.5 335  L 180.8 329  L 168.2 329  Z M 170.6 330  L 178.4 330  L 174.5 333.5  L 170.6 330  Z " fill-rule="nonzero" fill="#0099cc" stroke="none" />
</svg>