<?xml version="1.0" encoding="utf-8"?>
<svg version="1.1" xmlns:xlink="http://www.w3.org/1999/xlink" width="18px" height="19px" preserveAspectRatio="xMidYMin meet" viewBox="166 426  16 19" xmlns="http://www.w3.org/2000/svg">
  <path d="M 174.5 399  L 174.5 435  " stroke-width="1" stroke="#0099cc" fill="none" />
  <path d="M 174.5 394  A 3 3 0 0 0 171.5 397 A 3 3 0 0 0 174.5 400 A 3 3 0 0 0 177.5 397 A 3 3 0 0 0 174.5 394 Z M 174.5 395  A 2 2 0 0 1 176.5 397 A 2 2 0 0 1 174.5 399 A 2 2 0 0 1 172.5 397 A 2 2 0 0 1 174.5 395 Z M 168.2 434  L 174.5 440  L 180.8 434  L 168.2 434  Z M 170.6 435  L 178.4 435  L 174.5 438.5  L 170.6 435  Z " fill-rule="nonzero" fill="#0099cc" stroke="none" />
</svg>