<?xml version="1.0" encoding="utf-8"?>
<svg version="1.1" xmlns:xlink="http://www.w3.org/1999/xlink" width="18px" height="18px" preserveAspectRatio="xMinYMid meet" viewBox="165 494  18 16" xmlns="http://www.w3.org/2000/svg">
  <path d="M 174.5 504  L 174.5 540  " stroke-width="1" stroke="#0099cc" fill="none" />
  <path d="M 174.5 499  A 3 3 0 0 0 171.5 502 A 3 3 0 0 0 174.5 505 A 3 3 0 0 0 177.5 502 A 3 3 0 0 0 174.5 499 Z M 174.5 500  A 2 2 0 0 1 176.5 502 A 2 2 0 0 1 174.5 504 A 2 2 0 0 1 172.5 502 A 2 2 0 0 1 174.5 500 Z M 168.2 539  L 174.5 545  L 180.8 539  L 168.2 539  Z M 170.6 540  L 178.4 540  L 174.5 543.5  L 170.6 540  Z " fill-rule="nonzero" fill="#0099cc" stroke="none" />
</svg>