<?xml version="1.0" encoding="utf-8"?>
<svg version="1.1" xmlns:xlink="http://www.w3.org/1999/xlink" width="10px" height="220px" preserveAspectRatio="xMidYMin meet" viewBox="80 359  8 220" xmlns="http://www.w3.org/2000/svg">
  <path d="M 120 574.5  L 84.5 574.5  L 84.5 364.5  L 119.5 364.5  " stroke-width="1" stroke="#0099cc" fill="none" />
  <path d="M 122 571.5  A 3 3 0 0 0 119 574.5 A 3 3 0 0 0 122 577.5 A 3 3 0 0 0 125 574.5 A 3 3 0 0 0 122 571.5 Z M 122 572.5  A 2 2 0 0 1 124 574.5 A 2 2 0 0 1 122 576.5 A 2 2 0 0 1 120 574.5 A 2 2 0 0 1 122 572.5 Z M 118.5 370.8  L 124.5 364.5  L 118.5 358.2  L 118.5 370.8  Z M 119.5 368.4  L 119.5 360.6  L 123 364.5  L 119.5 368.4  Z " fill-rule="nonzero" fill="#0099cc" stroke="none" />
</svg>