<?xml version="1.0" encoding="utf-8"?>
<svg version="1.1" xmlns:xlink="http://www.w3.org/1999/xlink" width="18px" height="18px" preserveAspectRatio="xMinYMid meet" viewBox="165 599  18 16" xmlns="http://www.w3.org/2000/svg">
  <path d="M 174.5 609  L 174.5 723  " stroke-width="1" stroke="#0099cc" fill="none" />
  <path d="M 174.5 604  A 3 3 0 0 0 171.5 607 A 3 3 0 0 0 174.5 610 A 3 3 0 0 0 177.5 607 A 3 3 0 0 0 174.5 604 Z M 174.5 605  A 2 2 0 0 1 176.5 607 A 2 2 0 0 1 174.5 609 A 2 2 0 0 1 172.5 607 A 2 2 0 0 1 174.5 605 Z M 168.2 722  L 174.5 728  L 180.8 722  L 168.2 722  Z M 170.6 723  L 178.4 723  L 174.5 726.5  L 170.6 723  Z " fill-rule="nonzero" fill="#0099cc" stroke="none" />
</svg>