<?xml version="1.0" encoding="utf-8"?>
<svg version="1.1" xmlns:xlink="http://www.w3.org/1999/xlink" width="760px" height="10px" preserveAspectRatio="xMinYMid meet" viewBox="169 706  760 8" xmlns="http://www.w3.org/2000/svg">
  <path d="M 924.5 698  L 924.5 710.5  L 174.5 710.5  L 174.5 723  " stroke-width="1" stroke="#0099cc" fill="none" />
  <path d="M 924.5 693  A 3 3 0 0 0 921.5 696 A 3 3 0 0 0 924.5 699 A 3 3 0 0 0 927.5 696 A 3 3 0 0 0 924.5 693 Z M 924.5 694  A 2 2 0 0 1 926.5 696 A 2 2 0 0 1 924.5 698 A 2 2 0 0 1 922.5 696 A 2 2 0 0 1 924.5 694 Z M 168.2 722  L 174.5 728  L 180.8 722  L 168.2 722  Z M 170.6 723  L 178.4 723  L 174.5 726.5  L 170.6 723  Z " fill-rule="nonzero" fill="#0099cc" stroke="none" />
</svg>