<?xml version="1.0" encoding="utf-8"?>
<svg version="1.1" xmlns:xlink="http://www.w3.org/1999/xlink" width="18px" height="19px" preserveAspectRatio="xMidYMin meet" viewBox="166 1039  16 19" xmlns="http://www.w3.org/2000/svg">
  <path d="M 174.5 1005  L 174.5 1048  " stroke-width="1" stroke="#0099cc" fill="none" />
  <path d="M 174.5 1000  A 3 3 0 0 0 171.5 1003 A 3 3 0 0 0 174.5 1006 A 3 3 0 0 0 177.5 1003 A 3 3 0 0 0 174.5 1000 Z M 174.5 1001  A 2 2 0 0 1 176.5 1003 A 2 2 0 0 1 174.5 1005 A 2 2 0 0 1 172.5 1003 A 2 2 0 0 1 174.5 1001 Z M 168.2 1047  L 174.5 1053  L 180.8 1047  L 168.2 1047  Z M 170.6 1048  L 178.4 1048  L 174.5 1051.5  L 170.6 1048  Z " fill-rule="nonzero" fill="#0099cc" stroke="none" />
</svg>