<?xml version="1.0" encoding="utf-8"?>
<svg version="1.1" xmlns:xlink="http://www.w3.org/1999/xlink" width="18px" height="19px" preserveAspectRatio="xMidYMin meet" viewBox="416 1150  16 19" xmlns="http://www.w3.org/2000/svg">
  <path d="M 174.5 1117  L 174.5 1130.5  L 424.5 1130.5  L 424.5 1159  " stroke-width="1" stroke="#0099cc" fill="none" />
  <path d="M 174.5 1112  A 3 3 0 0 0 171.5 1115 A 3 3 0 0 0 174.5 1118 A 3 3 0 0 0 177.5 1115 A 3 3 0 0 0 174.5 1112 Z M 174.5 1113  A 2 2 0 0 1 176.5 1115 A 2 2 0 0 1 174.5 1117 A 2 2 0 0 1 172.5 1115 A 2 2 0 0 1 174.5 1113 Z M 418.2 1158  L 424.5 1164  L 430.8 1158  L 418.2 1158  Z M 420.6 1159  L 428.4 1159  L 424.5 1162.5  L 420.6 1159  Z " fill-rule="nonzero" fill="#0099cc" stroke="none" />
</svg>