<?xml version="1.0" encoding="utf-8"?>
<svg version="1.1" xmlns:xlink="http://www.w3.org/1999/xlink" width="10px" height="22px" preserveAspectRatio="xMidYMin meet" viewBox="420 1223  8 22" xmlns="http://www.w3.org/2000/svg">
  <defs>
    <mask fill="white" id="clip64">
      <path d="M 543.498046875 1228  L 572.501953125 1228  L 572.501953125 1252  L 543.498046875 1252  Z M 415 1214  L 683 1214  L 683 1284  L 415 1284  Z " fill-rule="evenodd" />
    </mask>
  </defs>
  <path d="M 424.5 1228  L 424.5 1240.5  L 674.5 1240.5  L 674.5 1271  " stroke-width="1" stroke="#0099cc" fill="none" mask="url(#clip64)" />
  <path d="M 424.5 1223  A 3 3 0 0 0 421.5 1226 A 3 3 0 0 0 424.5 1229 A 3 3 0 0 0 427.5 1226 A 3 3 0 0 0 424.5 1223 Z M 424.5 1224  A 2 2 0 0 1 426.5 1226 A 2 2 0 0 1 424.5 1228 A 2 2 0 0 1 422.5 1226 A 2 2 0 0 1 424.5 1224 Z M 668.2 1270  L 674.5 1276  L 680.8 1270  L 668.2 1270  Z M 670.6 1271  L 678.4 1271  L 674.5 1274.5  L 670.6 1271  Z " fill-rule="nonzero" fill="#0099cc" stroke="none" mask="url(#clip64)" />
</svg>