<?xml version="1.0" encoding="utf-8"?>
<svg version="1.1" xmlns:xlink="http://www.w3.org/1999/xlink" width="10px" height="31px" preserveAspectRatio="xMidYMin meet" viewBox="170 1355  8 31" xmlns="http://www.w3.org/2000/svg">
  <path d="M 674.5 1340  L 674.5 1360.5  L 174.5 1360.5  L 174.5 1382  " stroke-width="1" stroke="#0099cc" fill="none" />
  <path d="M 674.5 1335  A 3 3 0 0 0 671.5 1338 A 3 3 0 0 0 674.5 1341 A 3 3 0 0 0 677.5 1338 A 3 3 0 0 0 674.5 1335 Z M 674.5 1336  A 2 2 0 0 1 676.5 1338 A 2 2 0 0 1 674.5 1340 A 2 2 0 0 1 672.5 1338 A 2 2 0 0 1 674.5 1336 Z M 168.2 1381  L 174.5 1387  L 180.8 1381  L 168.2 1381  Z M 170.6 1382  L 178.4 1382  L 174.5 1385.5  L 170.6 1382  Z " fill-rule="nonzero" fill="#0099cc" stroke="none" />
</svg>