<?xml version="1.0" encoding="utf-8"?>
<svg version="1.1" xmlns:xlink="http://www.w3.org/1999/xlink" width="17px" height="18px" xmlns="http://www.w3.org/2000/svg">
  <g transform="matrix(1 0 0 1 -474 -233 )">
    <path d="M 14.1666666666667 5.14285714285714  C 14.1666666666667 6.12723214285714  13.8752170138889 7.03794642857143  13.2923177083333 7.875  C 13.6391059027778 7.96875  13.9692925347222 8.09598214285714  14.2828776041667 8.25669642857143  C 14.5964626736111 8.41741071428572  14.9248046875 8.66183035714286  15.2679036458333 8.98995535714286  C 15.6110026041667 9.31808035714286  15.904296875 9.70479910714286  16.1477864583333 10.1501116071429  C 16.3912760416667 10.5954241071429  16.5941840277778 11.1713169642857  16.7565104166667 11.8777901785714  C 16.9188368055556 12.5842633928571  17 13.3761160714286  17 14.2533482142857  C 17 15.2845982142857  16.6310763888889 16.1668526785714  15.8932291666667 16.9001116071429  C 15.1553819444444 17.6333705357143  14.2662760416667 18  13.2259114583333 18  L 3.77408854166667 18  C 2.73372395833333 18  1.84461805555556 17.6333705357143  1.10677083333333 16.9001116071429  C 0.368923611111111 16.1668526785714  0 15.2845982142857  0 14.2533482142857  C 0 13.3761160714286  0.0811631944444444 12.5842633928571  0.243489583333333 11.8777901785714  C 0.405815972222222 11.1713169642857  0.608723958333333 10.5954241071429  0.852213541666667 10.1501116071429  C 1.095703125 9.70479910714286  1.38899739583333 9.31808035714286  1.73209635416667 8.98995535714286  C 2.0751953125 8.66183035714286  2.40353732638889 8.41741071428572  2.71712239583333 8.25669642857143  C 3.03070746527778 8.09598214285714  3.36089409722222 7.96875  3.70768229166667 7.875  C 3.12478298611111 7.03794642857143  2.83333333333333 6.12723214285714  2.83333333333333 5.14285714285714  C 2.83333333333333 4.44642857142857  2.98274739583333 3.78180803571429  3.28157552083333 3.14899553571429  C 3.58040364583333 2.51618303571429  3.984375 1.96875  4.49348958333333 1.50669642857143  C 5.00260416666667 1.04464285714286  5.60579427083333 0.678013392857143  6.30305989583333 0.406808035714285  C 7.00032552083333 0.135602678571428  7.73263888888889 0  8.5 0  C 9.26736111111111 0  9.99967447916667 0.135602678571428  10.6969401041667 0.406808035714285  C 11.3942057291667 0.678013392857143  11.9973958333333 1.04464285714286  12.5065104166667 1.50669642857143  C 13.015625 1.96875  13.4195963541667 2.51618303571429  13.7184244791667 3.14899553571429  C 14.0172526041667 3.78180803571429  14.1666666666667 4.44642857142857  14.1666666666667 5.14285714285714  Z M 11.5048828125 2.41573660714286  C 10.6748046875 1.66238839285714  9.67317708333333 1.28571428571429  8.5 1.28571428571429  C 7.32682291666667 1.28571428571429  6.3251953125 1.66238839285714  5.4951171875 2.41573660714286  C 4.6650390625 3.16908482142857  4.25 4.078125  4.25 5.14285714285714  C 4.25 6.20758928571428  4.6650390625 7.11662946428572  5.4951171875 7.86997767857143  C 6.3251953125 8.62332589285714  7.32682291666667 9  8.5 9  C 9.67317708333333 9  10.6748046875 8.62332589285714  11.5048828125 7.86997767857143  C 12.3349609375 7.11662946428572  12.75 6.20758928571428  12.75 5.14285714285714  C 12.75 4.078125  12.3349609375 3.16908482142857  11.5048828125 2.41573660714286  Z M 3.77408854166667 16.7142857142857  L 13.2259114583333 16.7142857142857  C 13.8752170138889 16.7142857142857  14.4304470486111 16.4748883928571  14.8916015625 15.99609375  C 15.3527560763889 15.5172991071429  15.5833333333333 14.9363839285714  15.5833333333333 14.2533482142857  C 15.5833333333333 12.6529017857143  15.2937282986111 11.390625  14.7145182291667 10.4665178571429  C 14.1353081597222 9.54241071428572  13.3033854166667 9.05691964285714  12.21875 9.01004464285714  C 11.1488715277778 9.86049107142857  9.90928819444444 10.2857142857143  8.5 10.2857142857143  C 7.09071180555556 10.2857142857143  5.85112847222222 9.86049107142857  4.78125 9.01004464285714  C 3.69661458333333 9.05691964285714  2.86469184027778 9.54241071428572  2.28548177083333 10.4665178571429  C 1.70627170138889 11.390625  1.41666666666667 12.6529017857143  1.41666666666667 14.2533482142857  C 1.41666666666667 14.9363839285714  1.64724392361111 15.5172991071429  2.1083984375 15.99609375  C 2.56955295138889 16.4748883928571  3.12478298611111 16.7142857142857  3.77408854166667 16.7142857142857  Z " fill-rule="nonzero" fill="#7f7f7f" stroke="none" transform="matrix(1 0 0 1 474 233 )" />
  </g>
</svg>