<?xml version="1.0" encoding="utf-8"?>
<svg version="1.1" xmlns:xlink="http://www.w3.org/1999/xlink" width="20px" height="18px" xmlns="http://www.w3.org/2000/svg">
  <g transform="matrix(1 0 0 1 -471 -281 )">
    <path d="M 9.22162804515746 5.87939698492462  C 9.66528025351555 5.4572864321608  9.88710635769459 4.94472361809045  9.88710635769459 4.34170854271357  C 9.88710635769459 3.73869346733668  9.66528025351555 3.22613065326633  9.22162804515746 2.80402010050251  C 8.77797583679937 2.38190954773869  8.23925529807883 2.17085427135678  7.60546642899584 2.17085427135678  C 6.97167755991285 2.17085427135678  6.43295702119232 2.38190954773869  5.98930481283422 2.80402010050251  C 5.54565260447613 3.22613065326633  5.32382650029709 3.73869346733668  5.32382650029709 4.34170854271357  C 5.32382650029709 4.65829145728643  5.39908892850069 4.97110552763819  5.5496137849079 5.28015075376884  C 5.22479698950287 5.13693467336683  4.89601901366607 5.06532663316583  4.5632798573975 5.06532663316583  C 3.92949098831452 5.06532663316583  3.39077044959398 5.27638190954774  2.94711824123589 5.69849246231156  C 2.5034660328778 6.12060301507538  2.28163992869875 6.63316582914573  2.28163992869875 7.23618090452261  C 2.28163992869875 7.8391959798995  2.5034660328778 8.35175879396985  2.94711824123589 8.77386934673367  C 3.39077044959398 9.19597989949749  3.92949098831452 9.4070351758794  4.5632798573975 9.4070351758794  C 5.19706872648049 9.4070351758794  5.73578926520103 9.19597989949749  6.17944147355912 8.77386934673367  C 6.62309368191721 8.35175879396985  6.84491978609626 7.8391959798995  6.84491978609626 7.23618090452261  C 6.84491978609626 6.91959798994975  6.76965735789265 6.60678391959799  6.61913250148544 6.29773869346734  C 6.94394929689047 6.44095477386935  7.27272727272727 6.51256281407035  7.60546642899584 6.51256281407035  C 8.23925529807883 6.51256281407035  8.77797583679937 6.30150753768844  9.22162804515746 5.87939698492462  Z M 19.6613190730838 11.8379396984925  C 19.8871063576946 12.0866834170854  20 12.2412060301508  20 12.3015075376884  C 20 12.429648241206  19.8059021588433 12.678391959799  19.41770647653 13.0477386934673  C 19.0295107942167 13.4170854271357  18.7680728857199 13.6017587939699  18.6333927510398 13.6017587939699  C 18.562091503268 13.6017587939699  18.4491978609626 13.5414572864322  18.2947118241236 13.4208542713568  C 18.1402257872846 13.3002512562814  17.9956427015251 13.1758793969849  17.8609625668449 13.0477386934673  C 17.7262824321648 12.9195979899497  17.5737769855417 12.7688442211055  17.4034462269756 12.5954773869347  C 17.2331154684096 12.4221105527638  17.1360665478313 12.3241206030151  17.1122994652406 12.3015075376884  L 15.9714795008913 13.3869346733668  L 18.5858585858586 15.8743718592965  C 18.8076846900376 16.0854271356784  18.9185977421272 16.3417085427136  18.9185977421272 16.643216080402  C 18.9185977421272 16.9597989949749  18.7641117052882 17.2650753768844  18.4551396316102 17.5590452261307  C 18.1461675579323 17.8530150753769  17.825311942959 18  17.4925727866904 18  C 17.1756783521489 18  16.9063180827887 17.894472361809  16.6844919786096 17.6834170854271  L 8.7106357694593 10.0967336683417  C 7.31630025747673 11.0841708542714  5.87046939988116 11.5778894472362  4.37314319667261 11.5778894472362  C 3.08179837591602 11.5778894472362  2.03010497128144 11.1915829145729  1.21806298276887 10.4189698492462  C 0.406020994256289 9.6463567839196  0 8.64572864321608  0 7.41708542713568  C 0 6.21105527638191  0.376312141018024 5.03140703517588  1.12893642305407 3.87814070351759  C 1.88156070509012 2.7248743718593  2.86393345216875 1.79020100502512  4.07605466428996 1.07412060301508  C 5.28817587641117 0.358040201005024  6.52802535155476 0  7.79560308972074 0  C 9.08694791047732 0  10.1386413151119 0.386306532663315  10.9506833036245 1.15891959798995  C 11.7627252921371 1.93153266331658  12.1687462863933 2.9321608040201  12.1687462863933 4.1608040201005  C 12.1687462863933 5.58542713567839  11.6498316498317 6.96105527638191  10.6120023767083 8.28768844221106  L 14.8306595365419 12.3015075376884  L 15.9714795008913 11.21608040201  C 15.9477124183007 11.1934673366834  15.8447217270747 11.1011306532663  15.6625074272133 10.9390703517588  C 15.480293127352 10.7770100502513  15.3218459100812 10.6319095477387  15.1871657754011 10.5037688442211  C 15.0524856407209 10.3756281407035  14.9217666864726 10.2380653266332  14.795008912656 10.09108040201  C 14.6682511388394 9.94409547738693  14.6048722519311 9.83668341708543  14.6048722519311 9.76884422110553  C 14.6048722519311 9.64070351758794  14.7989700930877 9.39195979899497  15.1871657754011 9.02261306532663  C 15.5753614577144 8.65326633165829  15.8367993662111 8.46859296482412  15.9714795008913 8.46859296482412  C 16.0744701921173 8.46859296482412  16.1655773420479 8.50628140703517  16.2448009506833 8.58165829145729  C 16.2923351158645 8.62688442211055  16.4745494157259 8.79459798994975  16.7914438502674 9.08479899497488  C 17.1083382848089 9.375  17.4331550802139 9.67462311557789  17.7658942364825 9.98366834170854  C 18.098633392751 10.2927135678392  18.441275500099 10.6168341708543  18.7938205585264 10.9560301507538  C 19.1463656169539 11.2952261306533  19.435531788473 11.5891959798995  19.6613190730838 11.8379396984925  Z " fill-rule="nonzero" fill="#7f7f7f" stroke="none" transform="matrix(1 0 0 1 471 281 )" />
  </g>
</svg>