<?xml version="1.0" encoding="utf-8"?>
<svg version="1.1" xmlns:xlink="http://www.w3.org/1999/xlink" width="7px" height="8px" xmlns="http://www.w3.org/2000/svg">
  <g transform="matrix(1 0 0 1 -14 -57 )">
    <path d="M 0.5384615384615385 6.142857142857142  L 0.5384615384615385 7.428571428571429  L 1.75 7.428571428571429  L 1.75 6.142857142857142  L 0.5384615384615385 6.142857142857142  Z M 2.019230769230769 6.142857142857142  L 2.019230769230769 7.428571428571429  L 3.3653846153846154 7.428571428571429  L 3.3653846153846154 6.142857142857142  L 2.019230769230769 6.142857142857142  Z M 0.5384615384615385 4.428571428571429  L 0.5384615384615385 5.857142857142858  L 1.75 5.857142857142858  L 1.75 4.428571428571429  L 0.5384615384615385 4.428571428571429  Z M 2.019230769230769 4.428571428571429  L 2.019230769230769 5.857142857142858  L 3.3653846153846154 5.857142857142858  L 3.3653846153846154 4.428571428571429  L 2.019230769230769 4.428571428571429  Z M 0.5384615384615385 2.8571428571428568  L 0.5384615384615385 4.142857142857142  L 1.75 4.142857142857142  L 1.75 2.8571428571428568  L 0.5384615384615385 2.8571428571428568  Z M 3.634615384615385 6.142857142857142  L 3.634615384615385 7.428571428571429  L 4.980769230769231 7.428571428571429  L 4.980769230769231 6.142857142857142  L 3.634615384615385 6.142857142857142  Z M 2.019230769230769 2.8571428571428568  L 2.019230769230769 4.142857142857142  L 3.3653846153846154 4.142857142857142  L 3.3653846153846154 2.8571428571428568  L 2.019230769230769 2.8571428571428568  Z M 5.25 6.142857142857142  L 5.25 7.428571428571429  L 6.461538461538462 7.428571428571429  L 6.461538461538462 6.142857142857142  L 5.25 6.142857142857142  Z M 3.634615384615385 4.428571428571429  L 3.634615384615385 5.857142857142858  L 4.980769230769231 5.857142857142858  L 4.980769230769231 4.428571428571429  L 3.634615384615385 4.428571428571429  Z M 2.1138822115384617 2.100446428571429  C 2.14052483974359 2.0721726190476186  2.153846153846154 2.0386904761904754  2.153846153846154 2  L 2.153846153846154 0.7142857142857144  C 2.153846153846154 0.6755952380952381  2.14052483974359 0.6421130952380949  2.1138822115384617 0.6138392857142856  C 2.0872395833333335 0.5855654761904754  2.0556891025641026 0.5714285714285712  2.019230769230769 0.5714285714285712  L 1.75 0.5714285714285712  C 1.7135416666666667 0.5714285714285712  1.6819911858974361 0.5855654761904754  1.6553485576923077 0.6138392857142856  C 1.6287059294871793 0.6421130952380949  1.6153846153846154 0.6755952380952381  1.6153846153846154 0.7142857142857144  L 1.6153846153846154 2  C 1.6153846153846154 2.0386904761904754  1.6287059294871793 2.0721726190476186  1.6553485576923077 2.100446428571429  C 1.6819911858974361 2.128720238095238  1.7135416666666667 2.1428571428571432  1.75 2.1428571428571432  L 2.019230769230769 2.1428571428571432  C 2.0556891025641026 2.1428571428571432  2.0872395833333335 2.128720238095238  2.1138822115384617 2.100446428571429  Z M 5.25 4.428571428571429  L 5.25 5.857142857142858  L 6.461538461538462 5.857142857142858  L 6.461538461538462 4.428571428571429  L 5.25 4.428571428571429  Z M 3.634615384615385 2.8571428571428568  L 3.634615384615385 4.142857142857142  L 4.980769230769231 4.142857142857142  L 4.980769230769231 2.8571428571428568  L 3.634615384615385 2.8571428571428568  Z M 5.25 2.8571428571428568  L 5.25 4.142857142857142  L 6.461538461538462 4.142857142857142  L 6.461538461538462 2.8571428571428568  L 5.25 2.8571428571428568  Z M 5.344651442307692 2.100446428571429  C 5.371294070512821 2.0721726190476186  5.384615384615385 2.0386904761904754  5.384615384615385 2  L 5.384615384615385 0.7142857142857144  C 5.384615384615385 0.6755952380952381  5.371294070512821 0.6421130952380949  5.344651442307692 0.6138392857142856  C 5.318008814102565 0.5855654761904754  5.286458333333334 0.5714285714285712  5.25 0.5714285714285712  L 4.980769230769231 0.5714285714285712  C 4.944310897435898 0.5714285714285712  4.912760416666667 0.5855654761904754  4.886117788461538 0.6138392857142856  C 4.859475160256411 0.6421130952380949  4.846153846153846 0.6755952380952381  4.846153846153846 0.7142857142857144  L 4.846153846153846 2  C 4.846153846153846 2.0386904761904754  4.859475160256411 2.0721726190476186  4.886117788461538 2.100446428571429  C 4.912760416666667 2.128720238095238  4.944310897435898 2.1428571428571432  4.980769230769231 2.1428571428571432  L 5.25 2.1428571428571432  C 5.286458333333334 2.1428571428571432  5.318008814102565 2.128720238095238  5.344651442307692 2.100446428571429  Z M 6.840144230769231 1.3125  C 6.9467147435897445 1.4255952380952381  7 1.5595238095238093  7 1.7142857142857144  L 7 7.428571428571429  C 7 7.583333333333334  6.9467147435897445 7.717261904761905  6.840144230769231 7.830357142857143  C 6.733573717948719 7.9434523809523805  6.607371794871796 8  6.461538461538462 8  L 0.5384615384615385 8  C 0.3926282051282052 8  0.26642628205128205 7.9434523809523805  0.15985576923076922 7.830357142857143  C 0.05328525641025641 7.717261904761905  0 7.583333333333334  0 7.428571428571429  L 0 1.7142857142857144  C 0 1.5595238095238093  0.05328525641025641 1.4255952380952381  0.15985576923076922 1.3125  C 0.26642628205128205 1.199404761904761  0.3926282051282052 1.1428571428571432  0.5384615384615385 1.1428571428571432  L 1.076923076923077 1.1428571428571432  L 1.076923076923077 0.7142857142857144  C 1.076923076923077 0.5178571428571432  1.1428285256410255 0.3497023809523805  1.274639423076923 0.20982142857142883  C 1.4064503205128207 0.06994047619047628  1.5649038461538463 0  1.75 0  L 2.019230769230769 0  C 2.204326923076923 0  2.362780448717949 0.06994047619047628  2.494591346153846 0.20982142857142883  C 2.6264022435897436 0.3497023809523805  2.6923076923076925 0.5178571428571432  2.6923076923076925 0.7142857142857144  L 2.6923076923076925 1.1428571428571432  L 4.307692307692308 1.1428571428571432  L 4.307692307692308 0.7142857142857144  C 4.307692307692308 0.5178571428571432  4.373597756410256 0.3497023809523805  4.505408653846154 0.20982142857142883  C 4.637219551282052 0.06994047619047628  4.795673076923077 0  4.980769230769231 0  L 5.25 0  C 5.435096153846154 0  5.59354967948718 0.06994047619047628  5.725360576923077 0.20982142857142883  C 5.857171474358975 0.3497023809523805  5.923076923076923 0.5178571428571432  5.923076923076923 0.7142857142857144  L 5.923076923076923 1.1428571428571432  L 6.461538461538462 1.1428571428571432  C 6.607371794871796 1.1428571428571432  6.733573717948719 1.199404761904761  6.840144230769231 1.3125  Z " fill-rule="nonzero" fill="#000000" stroke="none" transform="matrix(1 0 0 1 14 57 )" />
  </g>
</svg>