<?xml version="1.0" encoding="utf-8"?>
<svg version="1.1" xmlns:xlink="http://www.w3.org/1999/xlink" width="5px" height="3px" xmlns="http://www.w3.org/2000/svg">
  <g transform="matrix(1 0 0 1 -95 -60 )">
    <path d="M 4.949899799599199 0.3092783505154638  C 4.983299933199733 0.3436426116838479  5 0.38316151202749105  5 0.4278350515463919  C 5 0.47250859106529175  4.983299933199733 0.5120274914089342  4.949899799599199 0.5463917525773196  L 2.6152304609218433 2.9484536082474224  C 2.5818303273213097 2.9828178694158067  2.543420173680695 3  2.5 3  C 2.4565798263193055 3  2.418169672678691 2.9828178694158067  2.3847695390781563 2.9484536082474224  L 0.0501002004008016 0.5463917525773196  C 0.016700066800267248 0.5120274914089342  0 0.47250859106529175  0 0.4278350515463919  C 0 0.38316151202749105  0.016700066800267248 0.3436426116838479  0.0501002004008016 0.3092783505154638  L 0.3006012024048096 0.05154639175257747  C 0.3340013360053441 0.017182130584192046  0.3724114896459586 0  0.41583166332665333 0  C 0.4592518370073481 0  0.4976619906479626 0.017182130584192046  0.531062124248497 0.05154639175257747  L 2.5 2.0773195876288657  L 4.468937875751503 0.05154639175257747  C 4.502338009352037 0.017182130584192046  4.540748162992652 0  4.584168336673347 0  C 4.627588510354042 0  4.665998663994657 0.017182130584192046  4.69939879759519 0.05154639175257747  L 4.949899799599199 0.3092783505154638  Z " fill-rule="nonzero" fill="#000000" stroke="none" transform="matrix(1 0 0 1 95 60 )" />
  </g>
</svg>