<?xml version="1.0" encoding="utf-8"?>
<svg version="1.1" xmlns:xlink="http://www.w3.org/1999/xlink" width="9px" height="8px" xmlns="http://www.w3.org/2000/svg">
  <g transform="matrix(1 0 0 1 -136 -57 )">
    <path d="M 0 1.7142857142857144  L 4.5 0  L 9 1.7142857142857144  L 9 2.2857142857142856  L 8.4 2.2857142857142856  C 8.4 2.363095238095238  8.367968750000001 2.4300595238095237  8.303906249999999 2.4866071428571432  C 8.23984375 2.543154761904761  8.1640625 2.571428571428571  8.0765625 2.571428571428571  L 0.9234374999999999 2.571428571428571  C 0.8359375 2.571428571428571  0.7601562500000001 2.543154761904761  0.6960937500000001 2.4866071428571432  C 0.63203125 2.4300595238095237  0.6 2.363095238095238  0.6 2.2857142857142856  L 0 2.2857142857142856  L 0 1.7142857142857144  Z M 1.2 6.285714285714286  L 1.2 2.8571428571428568  L 2.4 2.8571428571428568  L 2.4 6.285714285714286  L 3 6.285714285714286  L 3 2.8571428571428568  L 4.2 2.8571428571428568  L 4.2 6.285714285714286  L 4.8 6.285714285714286  L 4.8 2.8571428571428568  L 6 2.8571428571428568  L 6 6.285714285714286  L 6.6 6.285714285714286  L 6.6 2.8571428571428568  L 7.800000000000001 2.8571428571428568  L 7.800000000000001 6.285714285714286  L 8.0765625 6.285714285714286  C 8.1640625 6.285714285714286  8.23984375 6.313988095238095  8.303906249999999 6.370535714285714  C 8.367968750000001 6.427083333333334  8.4 6.4940476190476195  8.4 6.571428571428571  L 8.4 6.857142857142858  L 0.6 6.857142857142858  L 0.6 6.571428571428571  C 0.6 6.4940476190476195  0.63203125 6.427083333333334  0.6960937500000001 6.370535714285714  C 0.7601562500000001 6.313988095238095  0.8359375 6.285714285714286  0.9234374999999999 6.285714285714286  L 1.2 6.285714285714286  Z M 0.3234375 7.142857142857143  L 8.676562500000001 7.142857142857143  C 8.7640625 7.142857142857143  8.83984375 7.171130952380952  8.90390625 7.227678571428571  C 8.96796875 7.284226190476191  9.000000000000002 7.351190476190476  9 7.428571428571429  L 9 8  L 0 8  L 0 7.428571428571429  C 0 7.351190476190476  0.03203125 7.284226190476191  0.09609375 7.227678571428571  C 0.16015625000000003 7.171130952380952  0.2359375 7.142857142857143  0.3234375 7.142857142857143  Z " fill-rule="nonzero" fill="#000000" stroke="none" transform="matrix(1 0 0 1 136 57 )" />
  </g>
</svg>