<?xml version="1.0" encoding="utf-8"?>
<svg version="1.1" xmlns:xlink="http://www.w3.org/1999/xlink" width="474px" height="250px" xmlns="http://www.w3.org/2000/svg">
  <defs>
    <mask fill="white" id="clip4">
      <path d="M 0 11  L 28.8634697918269 11  L 39 0.857864376269049  L 49.1513880524787 11  L 474 11  L 474 250  L 0 250  L 0 11  Z " fill-rule="evenodd" />
    </mask>
  </defs>
  <g transform="matrix(1 0 0 1 -24 -337 )">
    <path d="M 0 11  L 28.8634697918269 11  L 39 0.857864376269049  L 49.1513880524787 11  L 474 11  L 474 250  L 0 250  L 0 11  Z " fill-rule="nonzero" fill="#ffffff" stroke="none" transform="matrix(1 0 0 1 24 337 )" />
    <path d="M 0 11  L 28.8634697918269 11  L 39 0.857864376269049  L 49.1513880524787 11  L 474 11  L 474 250  L 0 250  L 0 11  Z " stroke-width="2" stroke="#797979" fill="none" transform="matrix(1 0 0 1 24 337 )" mask="url(#clip4)" />
  </g>
</svg>