<?xml version="1.0" encoding="utf-8"?>
<svg version="1.1" xmlns:xlink="http://www.w3.org/1999/xlink" width="16px" height="16px" viewBox="157 164  16 16" xmlns="http://www.w3.org/2000/svg">
  <path d="M 165 164  C 169.48 164  173 167.52  173 172  C 173 176.48  169.48 180  165 180  C 160.52 180  157 176.48  157 172  C 157 167.52  160.52 164  165 164  Z " fill-rule="nonzero" fill="#f0f0f0" stroke="none" />
  <path d="M 165 164.5  C 169.2 164.5  172.5 167.8  172.5 172  C 172.5 176.2  169.2 179.5  165 179.5  C 160.8 179.5  157.5 176.2  157.5 172  C 157.5 167.8  160.8 164.5  165 164.5  Z " stroke-width="1" stroke="#000000" fill="none" />
  <path d="M 165 176  C 162.76 176  161 174.24  161 172  C 161 169.76  162.76 168  165 168  C 167.24 168  169 169.76  169 172  C 169 174.24  167.24 176  165 176  " fill-rule="nonzero" fill="#000000" stroke="none" />
</svg>