<?xml version="1.0" encoding="utf-8"?>
<svg version="1.1" xmlns:xlink="http://www.w3.org/1999/xlink" width="16px" height="16px" viewBox="170 245  16 16" xmlns="http://www.w3.org/2000/svg">
  <path d="M 178 245  C 182.48 245  186 248.52  186 253  C 186 257.48  182.48 261  178 261  C 173.52 261  170 257.48  170 253  C 170 248.52  173.52 245  178 245  Z " fill-rule="nonzero" fill="#f0f0f0" stroke="none" />
  <path d="M 178 245.5  C 182.2 245.5  185.5 248.8  185.5 253  C 185.5 257.2  182.2 260.5  178 260.5  C 173.8 260.5  170.5 257.2  170.5 253  C 170.5 248.8  173.8 245.5  178 245.5  Z " stroke-width="1" stroke="#000000" fill="none" />
  <path d="M 178 257  C 175.76 257  174 255.24  174 253  C 174 250.76  175.76 249  178 249  C 180.24 249  182 250.76  182 253  C 182 255.24  180.24 257  178 257  " fill-rule="nonzero" fill="#000000" stroke="none" />
</svg>