<?xml version="1.0" encoding="utf-8"?>
<svg version="1.1" xmlns:xlink="http://www.w3.org/1999/xlink" width="208px" height="10px" preserveAspectRatio="xMinYMid meet" viewBox="1229 1056  208 8" xmlns="http://www.w3.org/2000/svg">
  <path d="M 1234.5 1044  L 1234.5 1060.5  L 1432.5 1060.5  L 1432.5 1085  " stroke-width="1" stroke="#0099cc" fill="none" />
  <path d="M 1234.5 1039  A 3 3 0 0 0 1231.5 1042 A 3 3 0 0 0 1234.5 1045 A 3 3 0 0 0 1237.5 1042 A 3 3 0 0 0 1234.5 1039 Z M 1234.5 1040  A 2 2 0 0 1 1236.5 1042 A 2 2 0 0 1 1234.5 1044 A 2 2 0 0 1 1232.5 1042 A 2 2 0 0 1 1234.5 1040 Z M 1426.2 1084  L 1432.5 1090  L 1438.8 1084  L 1426.2 1084  Z M 1428.6 1085  L 1436.4 1085  L 1432.5 1088.5  L 1428.6 1085  Z " fill-rule="nonzero" fill="#0099cc" stroke="none" />
</svg>