<?xml version="1.0" encoding="utf-8"?>
<svg version="1.1" xmlns:xlink="http://www.w3.org/1999/xlink" width="10px" height="21px" preserveAspectRatio="xMidYMin meet" viewBox="729 855  8 21" xmlns="http://www.w3.org/2000/svg">
  <path d="M 336.5 872  L 336.5 860.5  L 531 860.5  A 3 3 0 0 1 534 857.5 A 3 3 0 0 1 537 860.5 L 733.5 860.5  L 733.5 872  " stroke-width="1" stroke-dasharray="3,1" stroke="#0099cc" fill="none" />
  <path d="M 336.5 871  A 3 3 0 0 0 333.5 874 A 3 3 0 0 0 336.5 877 A 3 3 0 0 0 339.5 874 A 3 3 0 0 0 336.5 871 Z M 336.5 872  A 2 2 0 0 1 338.5 874 A 2 2 0 0 1 336.5 876 A 2 2 0 0 1 334.5 874 A 2 2 0 0 1 336.5 872 Z M 727.2 871  L 733.5 877  L 739.8 871  L 727.2 871  Z M 729.6 872  L 737.4 872  L 733.5 875.5  L 729.6 872  Z " fill-rule="nonzero" fill="#0099cc" stroke="none" />
</svg>