<?xml version="1.0" encoding="utf-8"?>
<svg version="1.1" xmlns:xlink="http://www.w3.org/1999/xlink" width="18px" height="18px" preserveAspectRatio="xMinYMid meet" viewBox="578 617  18 16" xmlns="http://www.w3.org/2000/svg">
  <path d="M 589 625.5  L 733.5 625.5  L 733.5 872  " stroke-width="1" stroke-dasharray="3,1" stroke="#0099cc" fill="none" />
  <path d="M 587 622.5  A 3 3 0 0 0 584 625.5 A 3 3 0 0 0 587 628.5 A 3 3 0 0 0 590 625.5 A 3 3 0 0 0 587 622.5 Z M 587 623.5  A 2 2 0 0 1 589 625.5 A 2 2 0 0 1 587 627.5 A 2 2 0 0 1 585 625.5 A 2 2 0 0 1 587 623.5 Z M 727.2 871  L 733.5 877  L 739.8 871  L 727.2 871  Z M 729.6 872  L 737.4 872  L 733.5 875.5  L 729.6 872  Z " fill-rule="nonzero" fill="#0099cc" stroke="none" />
</svg>