<?xml version="1.0" encoding="utf-8"?>
<svg version="1.1" xmlns:xlink="http://www.w3.org/1999/xlink" width="51px" height="81px" xmlns="http://www.w3.org/2000/svg">
  <g transform="matrix(1 0 0 1 -38 -177 )">
    <path d="M 63 177.5  C 68.32 177.5  72.5 181.68  72.5 187  C 72.5 192.32  68.32 196.5  63 196.5  C 57.68 196.5  53.5 192.32  53.5 187  C 53.5 181.68  57.68 177.5  63 177.5  Z " fill-rule="nonzero" fill="#ffffff" stroke="none" />
    <path d="M 63 177.5  C 68.32 177.5  72.5 181.68  72.5 187  C 72.5 192.32  68.32 196.5  63 196.5  C 57.68 196.5  53.5 192.32  53.5 187  C 53.5 181.68  57.68 177.5  63 177.5  Z " stroke-width="1" stroke="#797979" fill="none" />
    <path d="M 38 207  L 88 207  M 63 197  L 63 232  M 43 257  L 63 232  M 63 232  L 83 257  " stroke-width="1" stroke="#797979" fill="none" />
  </g>
</svg>