<?xml version="1.0" encoding="utf-8"?>
<svg version="1.1" xmlns:xlink="http://www.w3.org/1999/xlink" width="18px" height="19px" preserveAspectRatio="xMidYMin meet" viewBox="130 764  16 19" xmlns="http://www.w3.org/2000/svg">
  <path d="M 138.5 749  L 138.5 773  " stroke-width="1" stroke="#0099cc" fill="none" />
  <path d="M 138.5 744  A 3 3 0 0 0 135.5 747 A 3 3 0 0 0 138.5 750 A 3 3 0 0 0 141.5 747 A 3 3 0 0 0 138.5 744 Z M 138.5 745  A 2 2 0 0 1 140.5 747 A 2 2 0 0 1 138.5 749 A 2 2 0 0 1 136.5 747 A 2 2 0 0 1 138.5 745 Z M 132.2 772  L 138.5 778  L 144.8 772  L 132.2 772  Z M 134.6 773  L 142.4 773  L 138.5 776.5  L 134.6 773  Z " fill-rule="nonzero" fill="#0099cc" stroke="none" />
</svg>