<?xml version="1.0" encoding="utf-8"?>
<svg version="1.1" xmlns:xlink="http://www.w3.org/1999/xlink" width="10px" height="44px" preserveAspectRatio="xMidYMin meet" viewBox="134 837  8 44" xmlns="http://www.w3.org/2000/svg">
  <path d="M 138.5 842  L 138.5 872  " stroke-width="1" stroke="#0099cc" fill="none" />
  <path d="M 138.5 837  A 3 3 0 0 0 135.5 840 A 3 3 0 0 0 138.5 843 A 3 3 0 0 0 141.5 840 A 3 3 0 0 0 138.5 837 Z M 138.5 838  A 2 2 0 0 1 140.5 840 A 2 2 0 0 1 138.5 842 A 2 2 0 0 1 136.5 840 A 2 2 0 0 1 138.5 838 Z M 132.2 871  L 138.5 877  L 144.8 871  L 132.2 871  Z M 134.6 872  L 142.4 872  L 138.5 875.5  L 134.6 872  Z " fill-rule="nonzero" fill="#0099cc" stroke="none" />
</svg>