<?xml version="1.0" encoding="utf-8"?>
<svg version="1.1" xmlns:xlink="http://www.w3.org/1999/xlink" width="10px" height="48px" preserveAspectRatio="xMidYMin meet" viewBox="134 936  8 48" xmlns="http://www.w3.org/2000/svg">
  <path d="M 138.5 941  L 138.5 975  " stroke-width="1" stroke="#0099cc" fill="none" />
  <path d="M 138.5 936  A 3 3 0 0 0 135.5 939 A 3 3 0 0 0 138.5 942 A 3 3 0 0 0 141.5 939 A 3 3 0 0 0 138.5 936 Z M 138.5 937  A 2 2 0 0 1 140.5 939 A 2 2 0 0 1 138.5 941 A 2 2 0 0 1 136.5 939 A 2 2 0 0 1 138.5 937 Z M 132.2 974  L 138.5 980  L 144.8 974  L 132.2 974  Z M 134.6 975  L 142.4 975  L 138.5 978.5  L 134.6 975  Z " fill-rule="nonzero" fill="#0099cc" stroke="none" />
</svg>