<?xml version="1.0" encoding="utf-8"?>
<svg version="1.1" xmlns:xlink="http://www.w3.org/1999/xlink" width="10px" height="55px" preserveAspectRatio="xMidYMin meet" viewBox="134 1039  8 55" xmlns="http://www.w3.org/2000/svg">
  <path d="M 138.5 1044  L 138.5 1085  " stroke-width="1" stroke="#0099cc" fill="none" />
  <path d="M 138.5 1039  A 3 3 0 0 0 135.5 1042 A 3 3 0 0 0 138.5 1045 A 3 3 0 0 0 141.5 1042 A 3 3 0 0 0 138.5 1039 Z M 138.5 1040  A 2 2 0 0 1 140.5 1042 A 2 2 0 0 1 138.5 1044 A 2 2 0 0 1 136.5 1042 A 2 2 0 0 1 138.5 1040 Z M 132.2 1084  L 138.5 1090  L 144.8 1084  L 132.2 1084  Z M 134.6 1085  L 142.4 1085  L 138.5 1088.5  L 134.6 1085  Z " fill-rule="nonzero" fill="#0099cc" stroke="none" />
</svg>