<?xml version="1.0" encoding="utf-8"?>
<svg version="1.1" xmlns:xlink="http://www.w3.org/1999/xlink" width="18px" height="19px" preserveAspectRatio="xMidYMin meet" viewBox="130 582  16 19" xmlns="http://www.w3.org/2000/svg">
  <path d="M 138.5 568  L 138.5 591  " stroke-width="1" stroke="#0099cc" fill="none" />
  <path d="M 138.5 563  A 3 3 0 0 0 135.5 566 A 3 3 0 0 0 138.5 569 A 3 3 0 0 0 141.5 566 A 3 3 0 0 0 138.5 563 Z M 138.5 564  A 2 2 0 0 1 140.5 566 A 2 2 0 0 1 138.5 568 A 2 2 0 0 1 136.5 566 A 2 2 0 0 1 138.5 564 Z M 132.2 590  L 138.5 596  L 144.8 590  L 132.2 590  Z M 134.6 591  L 142.4 591  L 138.5 594.5  L 134.6 591  Z " fill-rule="nonzero" fill="#0099cc" stroke="none" />
</svg>