<?xml version="1.0" encoding="utf-8"?>
<svg version="1.1" xmlns:xlink="http://www.w3.org/1999/xlink" width="18px" height="19px" preserveAspectRatio="xMidYMin meet" viewBox="130 671  16 19" xmlns="http://www.w3.org/2000/svg">
  <path d="M 138.5 660  L 138.5 680  " stroke-width="1" stroke="#0099cc" fill="none" />
  <path d="M 138.5 655  A 3 3 0 0 0 135.5 658 A 3 3 0 0 0 138.5 661 A 3 3 0 0 0 141.5 658 A 3 3 0 0 0 138.5 655 Z M 138.5 656  A 2 2 0 0 1 140.5 658 A 2 2 0 0 1 138.5 660 A 2 2 0 0 1 136.5 658 A 2 2 0 0 1 138.5 656 Z M 132.2 679  L 138.5 685  L 144.8 679  L 132.2 679  Z M 134.6 680  L 142.4 680  L 138.5 683.5  L 134.6 680  Z " fill-rule="nonzero" fill="#0099cc" stroke="none" />
</svg>