<?xml version="1.0" encoding="utf-8"?>
<svg version="1.1" xmlns:xlink="http://www.w3.org/1999/xlink" width="18px" height="18px" preserveAspectRatio="xMinYMid meet" viewBox="76 799  18 16" xmlns="http://www.w3.org/2000/svg">
  <path d="M 84 807.5  L 70.5 807.5  L 70.5 1009.5  L 83.5 1009.5  " stroke-width="1" stroke="#0099cc" fill="none" />
  <path d="M 86 804.5  A 3 3 0 0 0 83 807.5 A 3 3 0 0 0 86 810.5 A 3 3 0 0 0 89 807.5 A 3 3 0 0 0 86 804.5 Z M 86 805.5  A 2 2 0 0 1 88 807.5 A 2 2 0 0 1 86 809.5 A 2 2 0 0 1 84 807.5 A 2 2 0 0 1 86 805.5 Z M 82.5 1015.8  L 88.5 1009.5  L 82.5 1003.2  L 82.5 1015.8  Z M 83.5 1013.4  L 83.5 1005.6  L 87 1009.5  L 83.5 1013.4  Z " fill-rule="nonzero" fill="#0099cc" stroke="none" />
</svg>