<?xml version="1.0" encoding="utf-8"?>
<svg version="1.1" xmlns:xlink="http://www.w3.org/1999/xlink" width="18px" height="19px" preserveAspectRatio="xMidYMin meet" viewBox="526 582  16 19" xmlns="http://www.w3.org/2000/svg">
  <path d="M 534.5 568  L 534.5 591  " stroke-width="1" stroke="#0099cc" fill="none" />
  <path d="M 534.5 563  A 3 3 0 0 0 531.5 566 A 3 3 0 0 0 534.5 569 A 3 3 0 0 0 537.5 566 A 3 3 0 0 0 534.5 563 Z M 534.5 564  A 2 2 0 0 1 536.5 566 A 2 2 0 0 1 534.5 568 A 2 2 0 0 1 532.5 566 A 2 2 0 0 1 534.5 564 Z M 528.2 590  L 534.5 596  L 540.8 590  L 528.2 590  Z M 530.6 591  L 538.4 591  L 534.5 594.5  L 530.6 591  Z " fill-rule="nonzero" fill="#0099cc" stroke="none" />
</svg>