<?xml version="1.0" encoding="utf-8"?>
<svg version="1.1" xmlns:xlink="http://www.w3.org/1999/xlink" width="18px" height="18px" preserveAspectRatio="xMinYMid meet" viewBox="525 650  18 16" xmlns="http://www.w3.org/2000/svg">
  <path d="M 534.5 660  L 534.5 680  " stroke-width="1" stroke="#0099cc" fill="none" />
  <path d="M 534.5 655  A 3 3 0 0 0 531.5 658 A 3 3 0 0 0 534.5 661 A 3 3 0 0 0 537.5 658 A 3 3 0 0 0 534.5 655 Z M 534.5 656  A 2 2 0 0 1 536.5 658 A 2 2 0 0 1 534.5 660 A 2 2 0 0 1 532.5 658 A 2 2 0 0 1 534.5 656 Z M 528.2 679  L 534.5 685  L 540.8 679  L 528.2 679  Z M 530.6 680  L 538.4 680  L 534.5 683.5  L 530.6 680  Z " fill-rule="nonzero" fill="#0099cc" stroke="none" />
</svg>