<?xml version="1.0" encoding="utf-8"?>
<svg version="1.1" xmlns:xlink="http://www.w3.org/1999/xlink" width="18px" height="18px" preserveAspectRatio="xMinYMid meet" viewBox="472 617  18 16" xmlns="http://www.w3.org/2000/svg">
  <defs>
    <mask fill="white" id="clip37">
      <path d="M 313.5 566  L 358.5 566  L 358.5 593  L 313.5 593  Z M 179 524  L 493 524  L 493 634  L 179 634  Z " fill-rule="evenodd" />
    </mask>
  </defs>
  <path d="M 480 625.5  L 336.5 625.5  L 336.5 533.5  L 193.5 533.5  " stroke-width="1" stroke-dasharray="9,4,2,4" stroke="#0099cc" fill="none" mask="url(#clip37)" />
  <path d="M 482 622.5  A 3 3 0 0 0 479 625.5 A 3 3 0 0 0 482 628.5 A 3 3 0 0 0 485 625.5 A 3 3 0 0 0 482 622.5 Z M 482 623.5  A 2 2 0 0 1 484 625.5 A 2 2 0 0 1 482 627.5 A 2 2 0 0 1 480 625.5 A 2 2 0 0 1 482 623.5 Z M 194.5 527.2  L 188.5 533.5  L 194.5 539.8  L 194.5 527.2  Z M 193.5 529.6  L 193.5 537.4  L 190 533.5  L 193.5 529.6  Z " fill-rule="nonzero" fill="#0099cc" stroke="none" mask="url(#clip37)" />
</svg>