<?xml version="1.0" encoding="utf-8"?>
<svg version="1.1" xmlns:xlink="http://www.w3.org/1999/xlink" width="18px" height="18px" preserveAspectRatio="xMinYMid meet" viewBox="525 739  18 16" xmlns="http://www.w3.org/2000/svg">
  <path d="M 534.5 749  L 534.5 773  " stroke-width="1" stroke="#0099cc" fill="none" />
  <path d="M 534.5 744  A 3 3 0 0 0 531.5 747 A 3 3 0 0 0 534.5 750 A 3 3 0 0 0 537.5 747 A 3 3 0 0 0 534.5 744 Z M 534.5 745  A 2 2 0 0 1 536.5 747 A 2 2 0 0 1 534.5 749 A 2 2 0 0 1 532.5 747 A 2 2 0 0 1 534.5 745 Z M 528.2 772  L 534.5 778  L 540.8 772  L 528.2 772  Z M 530.6 773  L 538.4 773  L 534.5 776.5  L 530.6 773  Z " fill-rule="nonzero" fill="#0099cc" stroke="none" />
</svg>