<?xml version="1.0" encoding="utf-8"?>
<svg version="1.1" xmlns:xlink="http://www.w3.org/1999/xlink" width="18px" height="19px" preserveAspectRatio="xMidYMin meet" viewBox="526 863  16 19" xmlns="http://www.w3.org/2000/svg">
  <path d="M 534.5 842  L 534.5 872  " stroke-width="1" stroke="#0099cc" fill="none" />
  <path d="M 534.5 837  A 3 3 0 0 0 531.5 840 A 3 3 0 0 0 534.5 843 A 3 3 0 0 0 537.5 840 A 3 3 0 0 0 534.5 837 Z M 534.5 838  A 2 2 0 0 1 536.5 840 A 2 2 0 0 1 534.5 842 A 2 2 0 0 1 532.5 840 A 2 2 0 0 1 534.5 838 Z M 528.2 871  L 534.5 877  L 540.8 871  L 528.2 871  Z M 530.6 872  L 538.4 872  L 534.5 875.5  L 530.6 872  Z " fill-rule="nonzero" fill="#0099cc" stroke="none" />
</svg>