<?xml version="1.0" encoding="utf-8"?>
<svg version="1.1" xmlns:xlink="http://www.w3.org/1999/xlink" width="19px" height="18px" preserveAspectRatio="xMinYMid meet" viewBox="380 898  19 16" xmlns="http://www.w3.org/2000/svg">
  <defs>
    <mask fill="white" id="clip41">
      <path d="M 412.5 893  L 457.5 893  L 457.5 920  L 412.5 920  Z M 377 893  L 493 893  L 493 920  L 377 920  Z " fill-rule="evenodd" />
    </mask>
  </defs>
  <path d="M 412.5 906.5  L 391.5 906.5  M 457.5 906.5  L 480 906.5  " stroke-width="1" stroke-dasharray="3,1" stroke="#0099cc" fill="none" />
  <path d="M 482 903.5  A 3 3 0 0 0 479 906.5 A 3 3 0 0 0 482 909.5 A 3 3 0 0 0 485 906.5 A 3 3 0 0 0 482 903.5 Z M 482 904.5  A 2 2 0 0 1 484 906.5 A 2 2 0 0 1 482 908.5 A 2 2 0 0 1 480 906.5 A 2 2 0 0 1 482 904.5 Z M 392.5 900.2  L 386.5 906.5  L 392.5 912.8  L 392.5 900.2  Z M 391.5 902.6  L 391.5 910.4  L 388 906.5  L 391.5 902.6  Z " fill-rule="nonzero" fill="#0099cc" stroke="none" mask="url(#clip41)" />
</svg>