<?xml version="1.0" encoding="utf-8"?>
<svg version="1.1" xmlns:xlink="http://www.w3.org/1999/xlink" width="103px" height="10px" preserveAspectRatio="xMinYMid meet" viewBox="188 902  103 8" xmlns="http://www.w3.org/2000/svg">
  <defs>
    <mask fill="white" id="clip42">
      <path d="M 214.5 893  L 259.5 893  L 259.5 920  L 214.5 920  Z M 179 893  L 295 893  L 295 920  L 179 920  Z " fill-rule="evenodd" />
    </mask>
  </defs>
  <path d="M 214.5 906.5  L 193 906.5  M 259.5 906.5  L 281.5 906.5  " stroke-width="1" stroke-dasharray="3,1" stroke="#0099cc" fill="none" />
  <path d="M 191 903.5  A 3 3 0 0 0 188 906.5 A 3 3 0 0 0 191 909.5 A 3 3 0 0 0 194 906.5 A 3 3 0 0 0 191 903.5 Z M 191 904.5  A 2 2 0 0 1 193 906.5 A 2 2 0 0 1 191 908.5 A 2 2 0 0 1 189 906.5 A 2 2 0 0 1 191 904.5 Z M 280.5 912.8  L 286.5 906.5  L 280.5 900.2  L 280.5 912.8  Z M 281.5 910.4  L 281.5 902.6  L 285 906.5  L 281.5 910.4  Z " fill-rule="nonzero" fill="#0099cc" stroke="none" mask="url(#clip42)" />
</svg>