<?xml version="1.0" encoding="utf-8"?>
<svg version="1.1" xmlns:xlink="http://www.w3.org/1999/xlink" width="25px" height="10px" preserveAspectRatio="xMinYMid meet" viewBox="387 918  25 8" xmlns="http://www.w3.org/2000/svg">
  <path d="M 392 922.5  L 407.5 922.5  L 407.5 957.5  L 534.5 957.5  L 534.5 975  " stroke-width="1" stroke-dasharray="3,1" stroke="#0099cc" fill="none" />
  <path d="M 390 919.5  A 3 3 0 0 0 387 922.5 A 3 3 0 0 0 390 925.5 A 3 3 0 0 0 393 922.5 A 3 3 0 0 0 390 919.5 Z M 390 920.5  A 2 2 0 0 1 392 922.5 A 2 2 0 0 1 390 924.5 A 2 2 0 0 1 388 922.5 A 2 2 0 0 1 390 920.5 Z M 528.2 974  L 534.5 980  L 540.8 974  L 528.2 974  Z M 530.6 975  L 538.4 975  L 534.5 978.5  L 530.6 975  Z " fill-rule="nonzero" fill="#0099cc" stroke="none" />
</svg>