<?xml version="1.0" encoding="utf-8"?>
<svg version="1.1" xmlns:xlink="http://www.w3.org/1999/xlink" width="18px" height="19px" preserveAspectRatio="xMidYMin meet" viewBox="526 1076  16 19" xmlns="http://www.w3.org/2000/svg">
  <path d="M 534.5 1044  L 534.5 1085  " stroke-width="1" stroke-dasharray="3,1" stroke="#0099cc" fill="none" />
  <path d="M 534.5 1039  A 3 3 0 0 0 531.5 1042 A 3 3 0 0 0 534.5 1045 A 3 3 0 0 0 537.5 1042 A 3 3 0 0 0 534.5 1039 Z M 534.5 1040  A 2 2 0 0 1 536.5 1042 A 2 2 0 0 1 534.5 1044 A 2 2 0 0 1 532.5 1042 A 2 2 0 0 1 534.5 1040 Z M 528.2 1084  L 534.5 1090  L 540.8 1084  L 528.2 1084  Z M 530.6 1085  L 538.4 1085  L 534.5 1088.5  L 530.6 1085  Z " fill-rule="nonzero" fill="#0099cc" stroke="none" />
</svg>