<?xml version="1.0" encoding="utf-8"?>
<svg version="1.1" xmlns:xlink="http://www.w3.org/1999/xlink" width="10px" height="38px" preserveAspectRatio="xMidYMin meet" viewBox="1032 744  8 38" xmlns="http://www.w3.org/2000/svg">
  <path d="M 1036.5 749  L 1036.5 773  " stroke-width="1" stroke="#0099cc" fill="none" />
  <path d="M 1036.5 744  A 3 3 0 0 0 1033.5 747 A 3 3 0 0 0 1036.5 750 A 3 3 0 0 0 1039.5 747 A 3 3 0 0 0 1036.5 744 Z M 1036.5 745  A 2 2 0 0 1 1038.5 747 A 2 2 0 0 1 1036.5 749 A 2 2 0 0 1 1034.5 747 A 2 2 0 0 1 1036.5 745 Z M 1030.2 772  L 1036.5 778  L 1042.8 772  L 1030.2 772  Z M 1032.6 773  L 1040.4 773  L 1036.5 776.5  L 1032.6 773  Z " fill-rule="nonzero" fill="#0099cc" stroke="none" />
</svg>