<?xml version="1.0" encoding="utf-8"?>
<svg version="1.1" xmlns:xlink="http://www.w3.org/1999/xlink" width="18px" height="19px" preserveAspectRatio="xMidYMin meet" viewBox="1028 966  16 19" xmlns="http://www.w3.org/2000/svg">
  <path d="M 1234.5 941  L 1234.5 950.5  L 1036.5 950.5  L 1036.5 975  " stroke-width="1" stroke="#0099cc" fill="none" />
  <path d="M 1234.5 936  A 3 3 0 0 0 1231.5 939 A 3 3 0 0 0 1234.5 942 A 3 3 0 0 0 1237.5 939 A 3 3 0 0 0 1234.5 936 Z M 1234.5 937  A 2 2 0 0 1 1236.5 939 A 2 2 0 0 1 1234.5 941 A 2 2 0 0 1 1232.5 939 A 2 2 0 0 1 1234.5 937 Z M 1030.2 974  L 1036.5 980  L 1042.8 974  L 1030.2 974  Z M 1032.6 975  L 1040.4 975  L 1036.5 978.5  L 1032.6 975  Z " fill-rule="nonzero" fill="#0099cc" stroke="none" />
</svg>