<?xml version="1.0" encoding="utf-8"?>
<svg version="1.1" xmlns:xlink="http://www.w3.org/1999/xlink" width="10px" height="34px" preserveAspectRatio="xMidYMin meet" viewBox="1032 655  8 34" xmlns="http://www.w3.org/2000/svg">
  <path d="M 1036.5 660  L 1036.5 680  " stroke-width="1" stroke="#0099cc" fill="none" />
  <path d="M 1036.5 655  A 3 3 0 0 0 1033.5 658 A 3 3 0 0 0 1036.5 661 A 3 3 0 0 0 1039.5 658 A 3 3 0 0 0 1036.5 655 Z M 1036.5 656  A 2 2 0 0 1 1038.5 658 A 2 2 0 0 1 1036.5 660 A 2 2 0 0 1 1034.5 658 A 2 2 0 0 1 1036.5 656 Z M 1030.2 679  L 1036.5 685  L 1042.8 679  L 1030.2 679  Z M 1032.6 680  L 1040.4 680  L 1036.5 683.5  L 1032.6 680  Z " fill-rule="nonzero" fill="#0099cc" stroke="none" />
</svg>