<?xml version="1.0" encoding="utf-8"?>
<svg version="1.1" xmlns:xlink="http://www.w3.org/1999/xlink" width="18px" height="18px" preserveAspectRatio="xMinYMid meet" viewBox="974 706  18 16" xmlns="http://www.w3.org/2000/svg">
  <path d="M 982 714.5  L 970.5 714.5  L 970.5 1009.5  L 981.5 1009.5  " stroke-width="1" stroke-dasharray="9,4,2,4" stroke="#0099cc" fill="none" />
  <path d="M 984 711.5  A 3 3 0 0 0 981 714.5 A 3 3 0 0 0 984 717.5 A 3 3 0 0 0 987 714.5 A 3 3 0 0 0 984 711.5 Z M 984 712.5  A 2 2 0 0 1 986 714.5 A 2 2 0 0 1 984 716.5 A 2 2 0 0 1 982 714.5 A 2 2 0 0 1 984 712.5 Z M 980.5 1015.8  L 986.5 1009.5  L 980.5 1003.2  L 980.5 1015.8  Z M 981.5 1013.4  L 981.5 1005.6  L 985 1009.5  L 981.5 1013.4  Z " fill-rule="nonzero" fill="#0099cc" stroke="none" />
</svg>