<?xml version="1.0" encoding="utf-8"?>
<svg version="1.1" xmlns:xlink="http://www.w3.org/1999/xlink" width="18px" height="19px" preserveAspectRatio="xMidYMin meet" viewBox="1424 582  16 19" xmlns="http://www.w3.org/2000/svg">
  <path d="M 1432.5 568  L 1432.5 591  " stroke-width="1" stroke="#0099cc" fill="none" />
  <path d="M 1432.5 563  A 3 3 0 0 0 1429.5 566 A 3 3 0 0 0 1432.5 569 A 3 3 0 0 0 1435.5 566 A 3 3 0 0 0 1432.5 563 Z M 1432.5 564  A 2 2 0 0 1 1434.5 566 A 2 2 0 0 1 1432.5 568 A 2 2 0 0 1 1430.5 566 A 2 2 0 0 1 1432.5 564 Z M 1426.2 590  L 1432.5 596  L 1438.8 590  L 1426.2 590  Z M 1428.6 591  L 1436.4 591  L 1432.5 594.5  L 1428.6 591  Z " fill-rule="nonzero" fill="#0099cc" stroke="none" />
</svg>