<?xml version="1.0" encoding="utf-8"?>
<svg version="1.1" xmlns:xlink="http://www.w3.org/1999/xlink" width="18px" height="18px" preserveAspectRatio="xMinYMid meet" viewBox="1423 650  18 16" xmlns="http://www.w3.org/2000/svg">
  <path d="M 1432.5 660  L 1432.5 680  " stroke-width="1" stroke="#0099cc" fill="none" />
  <path d="M 1432.5 655  A 3 3 0 0 0 1429.5 658 A 3 3 0 0 0 1432.5 661 A 3 3 0 0 0 1435.5 658 A 3 3 0 0 0 1432.5 655 Z M 1432.5 656  A 2 2 0 0 1 1434.5 658 A 2 2 0 0 1 1432.5 660 A 2 2 0 0 1 1430.5 658 A 2 2 0 0 1 1432.5 656 Z M 1426.2 679  L 1432.5 685  L 1438.8 679  L 1426.2 679  Z M 1428.6 680  L 1436.4 680  L 1432.5 683.5  L 1428.6 680  Z " fill-rule="nonzero" fill="#0099cc" stroke="none" />
</svg>