<?xml version="1.0" encoding="utf-8"?>
<svg version="1.1" xmlns:xlink="http://www.w3.org/1999/xlink" width="105px" height="10px" preserveAspectRatio="xMinYMid meet" viewBox="513 889  105 8" xmlns="http://www.w3.org/2000/svg">
  <path d="M 518 893.5  L 612.5 893.5  " stroke-width="1" stroke="#000000" fill="none" />
  <path d="M 516 890.5  A 3 3 0 0 0 513 893.5 A 3 3 0 0 0 516 896.5 A 3 3 0 0 0 519 893.5 A 3 3 0 0 0 516 890.5 Z M 516 891.5  A 2 2 0 0 1 518 893.5 A 2 2 0 0 1 516 895.5 A 2 2 0 0 1 514 893.5 A 2 2 0 0 1 516 891.5 Z M 606.8 899.5  L 613.5 893.5  L 606.8 887.5  L 609.1 893.5  L 606.8 899.5  Z " fill-rule="nonzero" fill="#000000" stroke="none" />
</svg>