<?xml version="1.0" encoding="utf-8"?>
<svg version="1.1" xmlns:xlink="http://www.w3.org/1999/xlink" width="155px" height="10px" preserveAspectRatio="xMinYMid meet" viewBox="858 749  155 8" xmlns="http://www.w3.org/2000/svg">
  <defs>
    <mask fill="white" id="clip297">
      <path d="M 865.5 738  L 900.5 738  L 900.5 768  L 865.5 768  Z M 854 737  L 1029 737  L 1029 872  L 854 872  Z " fill-rule="evenodd" />
    </mask>
  </defs>
  <path d="M 863.5 859  L 863.5 753.5  L 1012.5 753.5  " stroke-width="1" stroke="#000000" fill="none" mask="url(#clip297)" />
  <path d="M 863.5 858  A 3 3 0 0 0 860.5 861 A 3 3 0 0 0 863.5 864 A 3 3 0 0 0 866.5 861 A 3 3 0 0 0 863.5 858 Z M 863.5 859  A 2 2 0 0 1 865.5 861 A 2 2 0 0 1 863.5 863 A 2 2 0 0 1 861.5 861 A 2 2 0 0 1 863.5 859 Z M 1006.8 759.5  L 1013.5 753.5  L 1006.8 747.5  L 1009.1 753.5  L 1006.8 759.5  Z " fill-rule="nonzero" fill="#000000" stroke="none" mask="url(#clip297)" />
</svg>