<?xml version="1.0" encoding="utf-8"?>
<svg version="1.1" xmlns:xlink="http://www.w3.org/1999/xlink" width="32px" height="32px" preserveAspectRatio="xMinYMid meet" viewBox="796 878  32 30" xmlns="http://www.w3.org/2000/svg">
  <defs>
    <mask fill="white" id="clip308">
      <path d="M 785.5 948  L 820.5 948  L 820.5 978  L 785.5 978  Z M 785.5 877  L 872 877  L 872 1012  L 785.5 1012  Z " fill-rule="evenodd" />
    </mask>
  </defs>
  <path d="M 863.5 999  L 863.5 963.5  L 793.5 963.5  L 793.5 893.5  L 812.5 893.5  " stroke-width="1" stroke="#000000" fill="none" mask="url(#clip308)" />
  <path d="M 863.5 998  A 3 3 0 0 0 860.5 1001 A 3 3 0 0 0 863.5 1004 A 3 3 0 0 0 866.5 1001 A 3 3 0 0 0 863.5 998 Z M 863.5 999  A 2 2 0 0 1 865.5 1001 A 2 2 0 0 1 863.5 1003 A 2 2 0 0 1 861.5 1001 A 2 2 0 0 1 863.5 999 Z M 806.8 899.5  L 813.5 893.5  L 806.8 887.5  L 809.1 893.5  L 806.8 899.5  Z " fill-rule="nonzero" fill="#000000" stroke="none" mask="url(#clip308)" />
</svg>