<?xml version="1.0" encoding="utf-8"?>
<svg version="1.1" xmlns:xlink="http://www.w3.org/1999/xlink" width="13px" height="13px" viewBox="21 242  13 13" xmlns="http://www.w3.org/2000/svg">
  <path d="M 27.5 242  C 31.14 242  34 244.86  34 248.5  C 34 252.14  31.14 255  27.5 255  C 23.86 255  21 252.14  21 248.5  C 21 244.86  23.86 242  27.5 242  Z " fill-rule="nonzero" fill="#ffffff" stroke="none" />
  <path d="M 27.5 242.5  C 30.86 242.5  33.5 245.14  33.5 248.5  C 33.5 251.86  30.86 254.5  27.5 254.5  C 24.14 254.5  21.5 251.86  21.5 248.5  C 21.5 245.14  24.14 242.5  27.5 242.5  Z " stroke-width="1" stroke="#797979" fill="none" />
  <path d="M 27.5 251.75  C 25.68 251.75  24.25 250.32  24.25 248.5  C 24.25 246.68  25.68 245.25  27.5 245.25  C 29.32 245.25  30.75 246.68  30.75 248.5  C 30.75 250.32  29.32 251.75  27.5 251.75  " fill-rule="nonzero" fill="#797979" stroke="none" />
</svg>