<?xml version="1.0" encoding="utf-8"?>
<svg version="1.1" xmlns:xlink="http://www.w3.org/1999/xlink" width="13px" height="13px" viewBox="21 82  13 13" xmlns="http://www.w3.org/2000/svg">
  <path d="M 27.5 82  C 31.14 82  34 84.86  34 88.5  C 34 92.14  31.14 95  27.5 95  C 23.86 95  21 92.14  21 88.5  C 21 84.86  23.86 82  27.5 82  Z " fill-rule="nonzero" fill="#ffffff" stroke="none" />
  <path d="M 27.5 82.5  C 30.86 82.5  33.5 85.14  33.5 88.5  C 33.5 91.86  30.86 94.5  27.5 94.5  C 24.14 94.5  21.5 91.86  21.5 88.5  C 21.5 85.14  24.14 82.5  27.5 82.5  Z " stroke-width="1" stroke="#797979" fill="none" />
  <path d="M 27.5 91.75  C 25.68 91.75  24.25 90.32  24.25 88.5  C 24.25 86.68  25.68 85.25  27.5 85.25  C 29.32 85.25  30.75 86.68  30.75 88.5  C 30.75 90.32  29.32 91.75  27.5 91.75  " fill-rule="nonzero" fill="#797979" stroke="none" />
</svg>