<?xml version="1.0" encoding="utf-8"?>
<svg version="1.1" xmlns:xlink="http://www.w3.org/1999/xlink" width="19px" height="18px" preserveAspectRatio="xMinYMid meet" viewBox="461 72  19 16" xmlns="http://www.w3.org/2000/svg">
  <path d="M 427 80.5  L 469.5 80.5  " stroke-width="1" stroke="#0099cc" fill="none" />
  <path d="M 425 77.5  A 3 3 0 0 0 422 80.5 A 3 3 0 0 0 425 83.5 A 3 3 0 0 0 428 80.5 A 3 3 0 0 0 425 77.5 Z M 425 78.5  A 2 2 0 0 1 427 80.5 A 2 2 0 0 1 425 82.5 A 2 2 0 0 1 423 80.5 A 2 2 0 0 1 425 78.5 Z M 468.5 86.8  L 474.5 80.5  L 468.5 74.2  L 468.5 86.8  Z M 469.5 84.4  L 469.5 76.6  L 473 80.5  L 469.5 84.4  Z " fill-rule="nonzero" fill="#0099cc" stroke="none" />
</svg>