<?xml version="1.0" encoding="utf-8"?>
<svg version="1.1" xmlns:xlink="http://www.w3.org/1999/xlink" width="18px" height="18px" preserveAspectRatio="xMinYMid meet" viewBox="1025 72  18 16" xmlns="http://www.w3.org/2000/svg">
  <path d="M 1036 80.5  L 1080.5 80.5  " stroke-width="1" stroke="#0099cc" fill="none" />
  <path d="M 1034 77.5  A 3 3 0 0 0 1031 80.5 A 3 3 0 0 0 1034 83.5 A 3 3 0 0 0 1037 80.5 A 3 3 0 0 0 1034 77.5 Z M 1034 78.5  A 2 2 0 0 1 1036 80.5 A 2 2 0 0 1 1034 82.5 A 2 2 0 0 1 1032 80.5 A 2 2 0 0 1 1034 78.5 Z M 1079.5 86.8  L 1085.5 80.5  L 1079.5 74.2  L 1079.5 86.8  Z M 1080.5 84.4  L 1080.5 76.6  L 1084 80.5  L 1080.5 84.4  Z " fill-rule="nonzero" fill="#0099cc" stroke="none" />
</svg>