<?xml version="1.0" encoding="utf-8"?>
<svg version="1.1" xmlns:xlink="http://www.w3.org/1999/xlink" width="19px" height="18px" preserveAspectRatio="xMinYMid meet" viewBox="156 330  19 16" xmlns="http://www.w3.org/2000/svg">
  <path d="M 122 338.5  L 164.5 338.5  " stroke-width="1" stroke="#0099cc" fill="none" />
  <path d="M 120 335.5  A 3 3 0 0 0 117 338.5 A 3 3 0 0 0 120 341.5 A 3 3 0 0 0 123 338.5 A 3 3 0 0 0 120 335.5 Z M 120 336.5  A 2 2 0 0 1 122 338.5 A 2 2 0 0 1 120 340.5 A 2 2 0 0 1 118 338.5 A 2 2 0 0 1 120 336.5 Z M 163.5 344.8  L 169.5 338.5  L 163.5 332.2  L 163.5 344.8  Z M 164.5 342.4  L 164.5 334.6  L 168 338.5  L 164.5 342.4  Z " fill-rule="nonzero" fill="#0099cc" stroke="none" />
</svg>