<?xml version="1.0" encoding="utf-8"?>
<svg version="1.1" xmlns:xlink="http://www.w3.org/1999/xlink" width="18px" height="18px" preserveAspectRatio="xMinYMid meet" viewBox="263 330  18 16" xmlns="http://www.w3.org/2000/svg">
  <path d="M 274 338.5  L 316.5 338.5  " stroke-width="1" stroke="#0099cc" fill="none" />
  <path d="M 272 335.5  A 3 3 0 0 0 269 338.5 A 3 3 0 0 0 272 341.5 A 3 3 0 0 0 275 338.5 A 3 3 0 0 0 272 335.5 Z M 272 336.5  A 2 2 0 0 1 274 338.5 A 2 2 0 0 1 272 340.5 A 2 2 0 0 1 270 338.5 A 2 2 0 0 1 272 336.5 Z M 315.5 344.8  L 321.5 338.5  L 315.5 332.2  L 315.5 344.8  Z M 316.5 342.4  L 316.5 334.6  L 320 338.5  L 316.5 342.4  Z " fill-rule="nonzero" fill="#0099cc" stroke="none" />
</svg>