<?xml version="1.0" encoding="utf-8"?>
<svg version="1.1" xmlns:xlink="http://www.w3.org/1999/xlink" width="19px" height="18px" preserveAspectRatio="xMinYMid meet" viewBox="461 330  19 16" xmlns="http://www.w3.org/2000/svg">
  <path d="M 426 338.5  L 469.5 338.5  " stroke-width="1" stroke="#0099cc" fill="none" />
  <path d="M 424 335.5  A 3 3 0 0 0 421 338.5 A 3 3 0 0 0 424 341.5 A 3 3 0 0 0 427 338.5 A 3 3 0 0 0 424 335.5 Z M 424 336.5  A 2 2 0 0 1 426 338.5 A 2 2 0 0 1 424 340.5 A 2 2 0 0 1 422 338.5 A 2 2 0 0 1 424 336.5 Z M 468.5 344.8  L 474.5 338.5  L 468.5 332.2  L 468.5 344.8  Z M 469.5 342.4  L 469.5 334.6  L 473 338.5  L 469.5 342.4  Z " fill-rule="nonzero" fill="#0099cc" stroke="none" />
</svg>