<?xml version="1.0" encoding="utf-8"?>
<svg version="1.1" xmlns:xlink="http://www.w3.org/1999/xlink" width="58px" height="10px" preserveAspectRatio="xMinYMid meet" viewBox="574 334  58 8" xmlns="http://www.w3.org/2000/svg">
  <path d="M 579 338.5  L 622.5 338.5  " stroke-width="1" stroke="#0099cc" fill="none" />
  <path d="M 577 335.5  A 3 3 0 0 0 574 338.5 A 3 3 0 0 0 577 341.5 A 3 3 0 0 0 580 338.5 A 3 3 0 0 0 577 335.5 Z M 577 336.5  A 2 2 0 0 1 579 338.5 A 2 2 0 0 1 577 340.5 A 2 2 0 0 1 575 338.5 A 2 2 0 0 1 577 336.5 Z M 621.5 344.8  L 627.5 338.5  L 621.5 332.2  L 621.5 344.8  Z M 622.5 342.4  L 622.5 334.6  L 626 338.5  L 622.5 342.4  Z " fill-rule="nonzero" fill="#0099cc" stroke="none" />
</svg>