<?xml version="1.0" encoding="utf-8"?>
<svg version="1.1" xmlns:xlink="http://www.w3.org/1999/xlink" width="60px" height="80px" xmlns="http://www.w3.org/2000/svg">
  <g transform="matrix(1 0 0 1 -951 -160 )">
    <path d="M 1010.5 172  C 1010.5 172  1010.5 228  1010.5 228  C 1010.5 234.608  997.1 239.5  981 239.5  C 964.9 239.5  951.5 234.608  951.5 228  C 951.5 228  951.5 172  951.5 172  C 951.5 165.392  964.9 160.5  981 160.5  C 997.1 160.5  1010.5 165.392  1010.5 172  Z " fill-rule="nonzero" fill="#ffffff" stroke="none" />
    <path d="M 951.5 172.35  C 951.5 165.714  964.48 160.5  981 160.5  C 997.52 160.5  1010.5 165.714  1010.5 172.35  C 1010.5 172.35  1010.5 227.65  1010.5 227.65  C 1010.5 234.286  997.52 239.5  981 239.5  C 964.48 239.5  951.5 234.286  951.5 227.65  C 951.5 227.65  951.5 172.35  951.5 172.35  Z " stroke-width="1" stroke="#797979" fill="none" />
    <path d="M 1010.5 172  C 1010.5 178.44  997.52 183.5  981 183.5  C 964.48 183.5  951.5 178.44  951.5 172  " stroke-width="1" stroke="#797979" fill="none" />
  </g>
</svg>