<?xml version="1.0" encoding="utf-8"?>
<svg version="1.1" xmlns:xlink="http://www.w3.org/1999/xlink" width="19px" height="18px" preserveAspectRatio="xMinYMid meet" viewBox="156 72  19 16" xmlns="http://www.w3.org/2000/svg">
  <path d="M 122 80.5  L 164.5 80.5  " stroke-width="1" stroke="#0099cc" fill="none" />
  <path d="M 120 77.5  A 3 3 0 0 0 117 80.5 A 3 3 0 0 0 120 83.5 A 3 3 0 0 0 123 80.5 A 3 3 0 0 0 120 77.5 Z M 120 78.5  A 2 2 0 0 1 122 80.5 A 2 2 0 0 1 120 82.5 A 2 2 0 0 1 118 80.5 A 2 2 0 0 1 120 78.5 Z M 163.5 86.8  L 169.5 80.5  L 163.5 74.2  L 163.5 86.8  Z M 164.5 84.4  L 164.5 76.6  L 168 80.5  L 164.5 84.4  Z " fill-rule="nonzero" fill="#0099cc" stroke="none" />
</svg>