<?xml version="1.0" encoding="utf-8"?>
<svg version="1.1" xmlns:xlink="http://www.w3.org/1999/xlink" width="44px" height="10px" preserveAspectRatio="xMinYMid meet" viewBox="1011 196  44 8" xmlns="http://www.w3.org/2000/svg">
  <defs>
    <mask fill="white" id="clip21">
      <path d="M 1027.5 137  L 1072.5 137  L 1072.5 164  L 1027.5 164  Z M 1002 71  L 1072.5 71  L 1072.5 209  L 1002 209  Z " fill-rule="evenodd" />
    </mask>
  </defs>
  <path d="M 1036 80.5  L 1050.5 80.5  L 1050.5 200.5  L 1016.5 200.5  " stroke-width="1" stroke-dasharray="3,1" stroke="#0099cc" fill="none" mask="url(#clip21)" />
  <path d="M 1034 77.5  A 3 3 0 0 0 1031 80.5 A 3 3 0 0 0 1034 83.5 A 3 3 0 0 0 1037 80.5 A 3 3 0 0 0 1034 77.5 Z M 1034 78.5  A 2 2 0 0 1 1036 80.5 A 2 2 0 0 1 1034 82.5 A 2 2 0 0 1 1032 80.5 A 2 2 0 0 1 1034 78.5 Z M 1017.5 194.2  L 1011.5 200.5  L 1017.5 206.8  L 1017.5 194.2  Z M 1016.5 196.6  L 1016.5 204.4  L 1013 200.5  L 1016.5 196.6  Z " fill-rule="nonzero" fill="#0099cc" stroke="none" mask="url(#clip21)" />
</svg>