<?xml version="1.0" encoding="utf-8"?>
<svg version="1.1" xmlns:xlink="http://www.w3.org/1999/xlink" width="18px" height="18px" preserveAspectRatio="xMinYMid meet" viewBox="972 297  18 16" xmlns="http://www.w3.org/2000/svg">
  <defs>
    <mask fill="white" id="clip29">
      <path d="M 958.5 261  L 1003.5 261  L 1003.5 288  L 958.5 288  Z M 958.5 231  L 1003.5 231  L 1003.5 317  L 958.5 317  Z " fill-rule="evenodd" />
    </mask>
  </defs>
  <path d="M 981.5 261  L 981.5 245.5  M 981.5 288  L 981.5 304  " stroke-width="1" stroke-dasharray="3,1" stroke="#0099cc" fill="none" />
  <path d="M 981.5 303  A 3 3 0 0 0 978.5 306 A 3 3 0 0 0 981.5 309 A 3 3 0 0 0 984.5 306 A 3 3 0 0 0 981.5 303 Z M 981.5 304  A 2 2 0 0 1 983.5 306 A 2 2 0 0 1 981.5 308 A 2 2 0 0 1 979.5 306 A 2 2 0 0 1 981.5 304 Z M 987.8 246.5  L 981.5 240.5  L 975.2 246.5  L 987.8 246.5  Z M 985.4 245.5  L 977.6 245.5  L 981.5 242  L 985.4 245.5  Z " fill-rule="nonzero" fill="#0099cc" stroke="none" mask="url(#clip29)" />
</svg>