<?xml version="1.0" encoding="utf-8"?>
<svg version="1.1" xmlns:xlink="http://www.w3.org/1999/xlink" width="18px" height="18px" preserveAspectRatio="xMinYMid meet" viewBox="1025 330  18 16" xmlns="http://www.w3.org/2000/svg">
  <path d="M 1036 338.5  L 1080.5 338.5  " stroke-width="1" stroke="#0099cc" fill="none" />
  <path d="M 1034 335.5  A 3 3 0 0 0 1031 338.5 A 3 3 0 0 0 1034 341.5 A 3 3 0 0 0 1037 338.5 A 3 3 0 0 0 1034 335.5 Z M 1034 336.5  A 2 2 0 0 1 1036 338.5 A 2 2 0 0 1 1034 340.5 A 2 2 0 0 1 1032 338.5 A 2 2 0 0 1 1034 336.5 Z M 1079.5 344.8  L 1085.5 338.5  L 1079.5 332.2  L 1079.5 344.8  Z M 1080.5 342.4  L 1080.5 334.6  L 1084 338.5  L 1080.5 342.4  Z " fill-rule="nonzero" fill="#0099cc" stroke="none" />
</svg>