<?xml version="1.0" encoding="utf-8"?>
<svg version="1.1" xmlns:xlink="http://www.w3.org/1999/xlink" width="57px" height="10px" preserveAspectRatio="xMinYMid meet" viewBox="879 334  57 8" xmlns="http://www.w3.org/2000/svg">
  <path d="M 884 338.5  L 926.5 338.5  " stroke-width="1" stroke="#0099cc" fill="none" />
  <path d="M 882 335.5  A 3 3 0 0 0 879 338.5 A 3 3 0 0 0 882 341.5 A 3 3 0 0 0 885 338.5 A 3 3 0 0 0 882 335.5 Z M 882 336.5  A 2 2 0 0 1 884 338.5 A 2 2 0 0 1 882 340.5 A 2 2 0 0 1 880 338.5 A 2 2 0 0 1 882 336.5 Z M 925.5 344.8  L 931.5 338.5  L 925.5 332.2  L 925.5 344.8  Z M 926.5 342.4  L 926.5 334.6  L 930 338.5  L 926.5 342.4  Z " fill-rule="nonzero" fill="#0099cc" stroke="none" />
</svg>