<?xml version="1.0" encoding="utf-8"?>
<svg version="1.1" xmlns:xlink="http://www.w3.org/1999/xlink" width="19px" height="18px" preserveAspectRatio="xMinYMid meet" viewBox="614 72  19 16" xmlns="http://www.w3.org/2000/svg">
  <defs>
    <mask fill="white" id="clip3">
      <path d="M 585.498046875 68  L 614.501953125 68  L 614.501953125 92  L 585.498046875 92  Z M 565 68  L 636 68  L 636 92  L 565 92  Z " fill-rule="evenodd" />
    </mask>
  </defs>
  <path d="M 585.498046875 80.5  L 579 80.5  M 614.501953125 80.5  L 622.5 80.5  " stroke-width="1" stroke="#0099cc" fill="none" />
  <path d="M 577 77.5  A 3 3 0 0 0 574 80.5 A 3 3 0 0 0 577 83.5 A 3 3 0 0 0 580 80.5 A 3 3 0 0 0 577 77.5 Z M 577 78.5  A 2 2 0 0 1 579 80.5 A 2 2 0 0 1 577 82.5 A 2 2 0 0 1 575 80.5 A 2 2 0 0 1 577 78.5 Z M 621.5 86.8  L 627.5 80.5  L 621.5 74.2  L 621.5 86.8  Z M 622.5 84.4  L 622.5 76.6  L 626 80.5  L 622.5 84.4  Z " fill-rule="nonzero" fill="#0099cc" stroke="none" mask="url(#clip3)" />
</svg>