<?xml version="1.0" encoding="utf-8"?>
<svg version="1.1" xmlns:xlink="http://www.w3.org/1999/xlink" width="19px" height="18px" preserveAspectRatio="xMinYMid meet" viewBox="766 72  19 16" xmlns="http://www.w3.org/2000/svg">
  <path d="M 732 80.5  L 774.5 80.5  " stroke-width="1" stroke="#0099cc" fill="none" />
  <path d="M 730 77.5  A 3 3 0 0 0 727 80.5 A 3 3 0 0 0 730 83.5 A 3 3 0 0 0 733 80.5 A 3 3 0 0 0 730 77.5 Z M 730 78.5  A 2 2 0 0 1 732 80.5 A 2 2 0 0 1 730 82.5 A 2 2 0 0 1 728 80.5 A 2 2 0 0 1 730 78.5 Z M 773.5 86.8  L 779.5 80.5  L 773.5 74.2  L 773.5 86.8  Z M 774.5 84.4  L 774.5 76.6  L 778 80.5  L 774.5 84.4  Z " fill-rule="nonzero" fill="#0099cc" stroke="none" />
</svg>