<?xml version="1.0" encoding="utf-8"?>
<svg version="1.1" xmlns:xlink="http://www.w3.org/1999/xlink" width="19px" height="18px" preserveAspectRatio="xMinYMid meet" viewBox="309 72  19 16" xmlns="http://www.w3.org/2000/svg">
  <path d="M 274 80.5  L 317.5 80.5  " stroke-width="1" stroke="#0099cc" fill="none" />
  <path d="M 272 77.5  A 3 3 0 0 0 269 80.5 A 3 3 0 0 0 272 83.5 A 3 3 0 0 0 275 80.5 A 3 3 0 0 0 272 77.5 Z M 272 78.5  A 2 2 0 0 1 274 80.5 A 2 2 0 0 1 272 82.5 A 2 2 0 0 1 270 80.5 A 2 2 0 0 1 272 78.5 Z M 316.5 86.8  L 322.5 80.5  L 316.5 74.2  L 316.5 86.8  Z M 317.5 84.4  L 317.5 76.6  L 321 80.5  L 317.5 84.4  Z " fill-rule="nonzero" fill="#0099cc" stroke="none" />
</svg>