<?xml version="1.0" encoding="utf-8"?>
<svg version="1.1" xmlns:xlink="http://www.w3.org/1999/xlink" width="6px" height="6px" xmlns="http://www.w3.org/2000/svg">
  <g transform="matrix(1 0 0 1 -296 -90 )">
    <path d="M 4.9140625 4.5546875  C 4.971354166666667 4.416666666666666  5 4.28515625  5 4.16015625  C 5 4.131510416666666  4.997395833333334 4.110677083333332  4.9921875 4.09765625  C 4.986979166666667 4.084635416666666  4.963541666666667 4.063151041666666  4.921875 4.033203125  C 4.880208333333334 4.003255208333333  4.827473958333334 3.9707031250000004  4.763671875 3.9355468750000004  C 4.699869791666667 3.9003906250000004  4.638020833333334 3.8658854166666656  4.578125 3.83203125  C 4.518229166666667 3.798177083333333  4.458984375 3.7656250000000004  4.400390625 3.7343749999999996  C 4.341796875 3.703125  4.3046875 3.6835937500000004  4.2890625 3.6757812499999996  C 4.276041666666667 3.66796875  4.251302083333334 3.6510416666666665  4.21484375 3.6250000000000004  C 4.178385416666667 3.598958333333333  4.145833333333334 3.5794270833333335  4.1171875 3.5664062500000004  C 4.088541666666667 3.553385416666666  4.061197916666667 3.5468749999999996  4.03515625 3.5468749999999996  C 3.99609375 3.5468749999999996  3.9485677083333335 3.5735677083333335  3.892578125 3.626953125  C 3.836588541666667 3.6803385416666665  3.785156250000001 3.7389322916666665  3.73828125 3.802734375  C 3.691406250000001 3.8665364583333335  3.641276041666667 3.9251302083333335  3.587890625 3.978515625  C 3.534505208333334 4.031901041666666  3.490885416666667 4.05859375  3.45703125 4.05859375  C 3.4388020833333335 4.05859375  3.417317708333334 4.054036458333334  3.392578125 4.044921875  C 3.367838541666667 4.035807291666666  3.34765625 4.02734375  3.33203125 4.01953125  C 3.31640625 4.01171875  3.294270833333334 3.9993489583333326  3.265625 3.9824218750000004  C 3.236979166666667 3.9654947916666656  3.21875 3.9544270833333335  3.2109375 3.94921875  C 2.953125 3.8059895833333326  2.7317708333333335 3.641276041666666  2.546875 3.4550781250000004  C 2.361979166666667 3.2688802083333335  2.1966145833333335 3.046875  2.05078125 2.7890625  C 2.045572916666667 2.78125  2.0345052083333335 2.763020833333333  2.017578125 2.734375  C 2.000651041666667 2.705729166666666  1.9882812500000002 2.68359375  1.98046875 2.66796875  C 1.97265625 2.65234375  1.9641927083333335 2.632161458333333  1.955078125 2.607421875  C 1.945963541666667 2.582682291666666  1.94140625 2.5611979166666665  1.94140625 2.54296875  C 1.94140625 2.509114583333333  1.9680989583333335 2.465494791666666  2.021484375 2.412109375  C 2.074869791666667 2.358723958333333  2.133463541666667 2.30859375  2.197265625 2.26171875  C 2.2610677083333335 2.21484375  2.3196614583333335 2.163411458333333  2.373046875 2.107421875  C 2.426432291666667 2.0514322916666665  2.453125 2.00390625  2.453125 1.9648437500000002  C 2.453125 1.9388020833333328  2.4466145833333335 1.911458333333333  2.43359375 1.8828125000000002  C 2.420572916666667 1.854166666666666  2.401041666666667 1.8216145833333328  2.375 1.7851562499999998  C 2.3489583333333335 1.748697916666666  2.33203125 1.723958333333333  2.32421875 1.7109375  C 2.31640625 1.6953125000000002  2.296875 1.658203125  2.265625 1.599609375  C 2.234375 1.541015625  2.201822916666667 1.4817708333333328  2.16796875 1.4218749999999998  C 2.1341145833333335 1.361979166666666  2.099609375 1.3001302083333328  2.064453125 1.236328125  C 2.029296875 1.1725260416666659  1.9967447916666665 1.1197916666666659  1.966796875 1.078125  C 1.9368489583333335 1.0364583333333328  1.9153645833333335 1.0130208333333328  1.90234375 1.0078125  C 1.8893229166666667 1.0026041666666659  1.8684895833333335 0.9999999999999998  1.83984375 0.9999999999999998  C 1.71484375 0.9999999999999998  1.5833333333333335 1.0286458333333333  1.4453125 1.0859375000000002  C 1.3255208333333335 1.1406249999999998  1.2213541666666667 1.2636718749999998  1.1328125 1.4550781250000002  C 1.0442708333333335 1.646484375  1 1.81640625  1 1.9648437500000002  C 1 2.006510416666667  1.0032552083333335 2.05078125  1.009765625 2.09765625  C 1.0162760416666667 2.14453125  1.0227864583333335 2.184244791666666  1.029296875 2.216796875  C 1.0358072916666667 2.249348958333333  1.0475260416666667 2.292317708333333  1.064453125 2.345703125  C 1.0813802083333335 2.399088541666667  1.0944010416666667 2.4375  1.103515625 2.4609375  C 1.1126302083333335 2.484375  1.12890625 2.52734375  1.15234375 2.58984375  C 1.17578125 2.65234375  1.1901041666666667 2.69140625  1.1953125 2.70703125  C 1.3515625 3.1341145833333335  1.6334635416666665 3.5514322916666665  2.041015625 3.9589843750000004  C 2.4485677083333335 4.366536458333333  2.865885416666667 4.6484375  3.29296875 4.8046875  C 3.3085937500000004 4.809895833333333  3.34765625 4.82421875  3.41015625 4.84765625  C 3.4726562500000004 4.87109375  3.515625000000001 4.887369791666667  3.5390625 4.896484375  C 3.562500000000001 4.905598958333333  3.600911458333334 4.918619791666667  3.654296875 4.935546875  C 3.707682291666667 4.952473958333333  3.750651041666667 4.964192708333333  3.783203125 4.970703125  C 3.815755208333334 4.977213541666667  3.855468750000001 4.983723958333333  3.90234375 4.990234375  C 3.949218750000001 4.996744791666667  3.993489583333334 5  4.03515625 5  C 4.18359375 5  4.353515625 4.955729166666667  4.544921875 4.8671875  C 4.736328125 4.778645833333333  4.859375 4.674479166666667  4.9140625 4.5546875  Z M 5.669921875 0.3300781250000002  C 5.889973958333333 0.5501302083333328  6 0.8151041666666659  6 1.125  L 6 4.875  C 6 5.184895833333333  5.889973958333333 5.449869791666667  5.669921875 5.669921875  C 5.449869791666667 5.889973958333333  5.184895833333334 6  4.875 6  L 1.125 6  C 0.8151041666666667 6  0.5501302083333334 5.889973958333333  0.330078125 5.669921875  C 0.11002604166666666 5.449869791666667  0 5.184895833333333  0 4.875  L 0 1.125  C 0 0.8151041666666659  0.11002604166666666 0.5501302083333328  0.330078125 0.3300781250000002  C 0.5501302083333334 0.1100260416666663  0.8151041666666667 0  1.125 0  L 4.875 0  C 5.184895833333334 0  5.449869791666667 0.1100260416666663  5.669921875 0.3300781250000002  Z " fill-rule="nonzero" fill="#d9001b" stroke="none" transform="matrix(1 0 0 1 296 90 )" />
  </g>
</svg>