<?xml version="1.0" encoding="utf-8"?>
<svg version="1.1" xmlns:xlink="http://www.w3.org/1999/xlink" width="7px" height="6px" xmlns="http://www.w3.org/2000/svg">
  <g transform="matrix(1 0 0 1 -289 -92 )">
    <path d="M 6.498697916666666 3.658052884615385  C 6.5217881944444445 3.635216346153846  6.533333333333333 3.608173076923077  6.533333333333333 3.5769230769230766  L 6.533333333333333 0.5769230769230769  C 6.533333333333333 0.5456730769230766  6.5217881944444445 0.5186298076923073  6.498697916666666 0.4957932692307694  C 6.4756076388888895 0.47295673076923017  6.4482638888888895 0.46153846153846123  6.416666666666666 0.46153846153846123  L 0.5833333333333333 0.46153846153846123  C 0.5517361111111112 0.46153846153846123  0.5243923611111112 0.47295673076923017  0.5013020833333333 0.4957932692307694  C 0.4782118055555556 0.5186298076923073  0.4666666666666667 0.5456730769230766  0.4666666666666667 0.5769230769230769  L 0.4666666666666667 3.5769230769230766  C 0.4666666666666667 3.608173076923077  0.4782118055555556 3.635216346153846  0.5013020833333333 3.658052884615385  C 0.5243923611111112 3.680889423076923  0.5517361111111112 3.6923076923076925  0.5833333333333333 3.6923076923076925  L 6.416666666666666 3.6923076923076925  C 6.4482638888888895 3.6923076923076925  6.4756076388888895 3.680889423076923  6.498697916666666 3.658052884615385  Z M 6.828645833333333 0.16947115384615374  C 6.942881944444445 0.2824519230769229  7.000000000000002 0.4182692307692306  7 0.5769230769230769  L 7 4.5  C 7.000000000000002 4.658653846153847  6.942881944444445 4.794471153846153  6.828645833333333 4.907451923076923  C 6.714409722222222 5.020432692307692  6.577083333333333 5.076923076923077  6.416666666666666 5.076923076923077  L 4.433333333333334 5.076923076923077  C 4.433333333333334 5.165865384615385  4.452777777777778 5.259014423076923  4.491666666666667 5.3563701923076925  C 4.530555555555556 5.453725961538462  4.5694444444444455 5.5390625  4.608333333333333 5.6123798076923075  C 4.647222222222223 5.685697115384615  4.666666666666666 5.737980769230769  4.666666666666666 5.769230769230769  C 4.666666666666666 5.831730769230769  4.643576388888889 5.8858173076923075  4.597395833333334 5.931490384615384  C 4.551215277777779 5.977163461538462  4.496527777777779 6  4.433333333333334 6  L 2.5666666666666664 6  C 2.5034722222222228 6  2.4487847222222228 5.977163461538462  2.4026041666666664 5.931490384615384  C 2.356423611111111 5.8858173076923075  2.333333333333333 5.831730769230769  2.333333333333333 5.769230769230769  C 2.333333333333333 5.735576923076923  2.352777777777778 5.6826923076923075  2.3916666666666666 5.610576923076923  C 2.430555555555556 5.538461538461538  2.4694444444444446 5.454326923076923  2.5083333333333333 5.358173076923077  C 2.5472222222222225 5.26201923076923  2.5666666666666664 5.16826923076923  2.5666666666666664 5.076923076923077  L 0.5833333333333333 5.076923076923077  C 0.42291666666666666 5.076923076923077  0.28559027777777785 5.020432692307692  0.17135416666666667 4.907451923076923  C 0.05711805555555556 4.794471153846153  0 4.658653846153847  0 4.5  L 0 0.5769230769230769  C 0 0.4182692307692306  0.05711805555555556 0.2824519230769229  0.17135416666666667 0.16947115384615374  C 0.28559027777777785 0.05649038461538458  0.42291666666666666 0  0.5833333333333333 0  L 6.416666666666666 0  C 6.577083333333333 0  6.714409722222222 0.05649038461538458  6.828645833333333 0.16947115384615374  Z " fill-rule="nonzero" fill="#0000ff" stroke="none" transform="matrix(1 0 0 1 289 92 )" />
  </g>
</svg>