<?xml version="1.0" encoding="utf-8"?>
<svg version="1.1" xmlns:xlink="http://www.w3.org/1999/xlink" width="8px" height="5px" xmlns="http://www.w3.org/2000/svg">
  <g transform="matrix(1 0 0 1 -348 -173 )">
    <path d="M 7.919839679358717 4.0893470790378  C 7.973279893119573 4.146620847651774  8 4.212485681557846  8 4.2869415807560145  C 8 4.36139747995418  7.973279893119573 4.427262313860251  7.919839679358717 4.484536082474227  L 7.519038076152305 4.914089347079037  C 7.4655978623914505 4.971363115693011  7.404141616566467 5  7.3346693386773545 5  C 7.2651970607882435 5  7.20374081496326 4.971363115693011  7.150300601202405 4.914089347079037  L 4 1.5378006872852235  L 0.8496993987975952 4.914089347079037  C 0.7962591850367402 4.971363115693011  0.734802939211757 5  0.6653306613226453 5  C 0.5958583834335338 5  0.5344021376085506 4.971363115693011  0.48096192384769537 4.914089347079037  L 0.08016032064128256 4.484536082474227  C 0.0267201068804276 4.427262313860251  0 4.36139747995418  0 4.2869415807560145  C 0 4.212485681557846  0.0267201068804276 4.146620847651774  0.08016032064128256 4.0893470790378  L 3.81563126252505 0.08591065292096245  C 3.8690714762859058 0.028636884306986743  3.930527722110889 0  4 0  C 4.069472277889112 0  4.130928523714095 0.028636884306986743  4.18436873747495 0.08591065292096245  L 7.919839679358717 4.0893470790378  Z " fill-rule="nonzero" fill="#d9001b" stroke="none" transform="matrix(1 0 0 1 348 173 )" />
  </g>
</svg>