<?xml version="1.0" encoding="utf-8"?>
<svg version="1.1" xmlns:xlink="http://www.w3.org/1999/xlink" width="8px" height="8px" xmlns="http://www.w3.org/2000/svg">
  <g transform="matrix(1 0 0 1 -348 -172 )">
    <path d="M 7.919839679358717 7.122153209109731  C 7.973279893119573 7.177363699102829  8 7.240855762594892  8 7.312629399585921  C 8 7.38440303657695  7.973279893119573 7.447895100069013  7.919839679358717 7.503105590062112  L 7.519038076152305 7.917184265010352  C 7.4655978623914505 7.972394755003451  7.404141616566467 8  7.3346693386773545 8  C 7.2651970607882435 8  7.20374081496326 7.972394755003451  7.150300601202405 7.917184265010352  L 4 4.662525879917185  L 0.8496993987975952 7.917184265010352  C 0.7962591850367402 7.972394755003451  0.734802939211757 8  0.6653306613226453 8  C 0.5958583834335338 8  0.5344021376085506 7.972394755003451  0.48096192384769537 7.917184265010352  L 0.08016032064128256 7.503105590062112  C 0.0267201068804276 7.447895100069013  0 7.38440303657695  0 7.312629399585921  C 0 7.240855762594892  0.0267201068804276 7.177363699102829  0.08016032064128256 7.122153209109731  L 3.81563126252505 3.262939958592132  C 3.8690714762859058 3.207729468599033  3.930527722110889 3.1801242236024843  4 3.1801242236024843  C 4.069472277889112 3.1801242236024843  4.130928523714095 3.207729468599033  4.18436873747495 3.262939958592132  L 7.919839679358717 7.122153209109731  Z M 7.919839679358717 3.942028985507246  C 7.973279893119573 3.9972394755003444  8 4.060731538992409  8 4.132505175983437  C 8 4.204278812974465  7.973279893119573 4.267770876466528  7.919839679358717 4.3229813664596275  L 7.519038076152305 4.737060041407867  C 7.4655978623914505 4.792270531400966  7.404141616566467 4.819875776397516  7.3346693386773545 4.819875776397516  C 7.2651970607882435 4.819875776397516  7.20374081496326 4.792270531400966  7.150300601202405 4.737060041407867  L 4 1.4824016563146998  L 0.8496993987975952 4.737060041407867  C 0.7962591850367402 4.792270531400966  0.734802939211757 4.819875776397516  0.6653306613226453 4.819875776397516  C 0.5958583834335338 4.819875776397516  0.5344021376085506 4.792270531400966  0.48096192384769537 4.737060041407867  L 0.08016032064128256 4.3229813664596275  C 0.0267201068804276 4.267770876466528  0 4.204278812974465  0 4.132505175983437  C 0 4.060731538992409  0.0267201068804276 3.9972394755003444  0.08016032064128256 3.942028985507246  L 3.81563126252505 0.0828157349896479  C 3.8690714762859058 0.027605244996548706  3.930527722110889 0  4 0  C 4.069472277889112 0  4.130928523714095 0.027605244996548706  4.18436873747495 0.0828157349896479  L 7.919839679358717 3.942028985507246  Z " fill-rule="nonzero" fill="#d9001b" stroke="none" transform="matrix(1 0 0 1 348 172 )" />
  </g>
</svg>