<?xml version="1.0" encoding="utf-8"?>
<svg version="1.1" xmlns:xlink="http://www.w3.org/1999/xlink" width="11px" height="12px" xmlns="http://www.w3.org/2000/svg">
  <g transform="matrix(1 0 0 1 -146 -105 )">
    <path d="M 0.8461538461538463 9.214285714285714  L 0.8461538461538463 11.142857142857142  L 2.75 11.142857142857142  L 2.75 9.214285714285714  L 0.8461538461538463 9.214285714285714  Z M 3.173076923076923 9.214285714285714  L 3.173076923076923 11.142857142857142  L 5.288461538461538 11.142857142857142  L 5.288461538461538 9.214285714285714  L 3.173076923076923 9.214285714285714  Z M 0.8461538461538463 6.642857142857143  L 0.8461538461538463 8.785714285714286  L 2.75 8.785714285714286  L 2.75 6.642857142857143  L 0.8461538461538463 6.642857142857143  Z M 3.173076923076923 6.642857142857143  L 3.173076923076923 8.785714285714286  L 5.288461538461538 8.785714285714286  L 5.288461538461538 6.642857142857143  L 3.173076923076923 6.642857142857143  Z M 0.8461538461538463 4.285714285714285  L 0.8461538461538463 6.2142857142857135  L 2.75 6.2142857142857135  L 2.75 4.285714285714285  L 0.8461538461538463 4.285714285714285  Z M 5.711538461538462 9.214285714285714  L 5.711538461538462 11.142857142857142  L 7.8269230769230775 11.142857142857142  L 7.8269230769230775 9.214285714285714  L 5.711538461538462 9.214285714285714  Z M 3.173076923076923 4.285714285714285  L 3.173076923076923 6.2142857142857135  L 5.288461538461538 6.2142857142857135  L 5.288461538461538 4.285714285714285  L 3.173076923076923 4.285714285714285  Z M 8.25 9.214285714285714  L 8.25 11.142857142857142  L 10.153846153846155 11.142857142857142  L 10.153846153846155 9.214285714285714  L 8.25 9.214285714285714  Z M 5.711538461538462 6.642857142857143  L 5.711538461538462 8.785714285714286  L 7.8269230769230775 8.785714285714286  L 7.8269230769230775 6.642857142857143  L 5.711538461538462 6.642857142857143  Z M 3.3218149038461537 3.1506696428571432  C 3.363681891025641 3.108258928571428  3.384615384615385 3.058035714285713  3.384615384615385 3  L 3.384615384615385 1.0714285714285716  C 3.384615384615385 1.0133928571428572  3.363681891025641 0.9631696428571423  3.3218149038461537 0.9207589285714284  C 3.279947916666667 0.8783482142857131  3.23036858974359 0.8571428571428568  3.173076923076923 0.8571428571428568  L 2.75 0.8571428571428568  C 2.6927083333333335 0.8571428571428568  2.643129006410257 0.8783482142857131  2.601262019230769 0.9207589285714284  C 2.5593950320512815 0.9631696428571423  2.5384615384615388 1.0133928571428572  2.5384615384615388 1.0714285714285716  L 2.5384615384615388 3  C 2.5384615384615388 3.058035714285713  2.5593950320512815 3.108258928571428  2.601262019230769 3.1506696428571432  C 2.643129006410257 3.193080357142857  2.6927083333333335 3.214285714285715  2.75 3.214285714285715  L 3.173076923076923 3.214285714285715  C 3.23036858974359 3.214285714285715  3.279947916666667 3.193080357142857  3.3218149038461537 3.1506696428571432  Z M 8.25 6.642857142857143  L 8.25 8.785714285714286  L 10.153846153846155 8.785714285714286  L 10.153846153846155 6.642857142857143  L 8.25 6.642857142857143  Z M 5.711538461538462 4.285714285714285  L 5.711538461538462 6.2142857142857135  L 7.8269230769230775 6.2142857142857135  L 7.8269230769230775 4.285714285714285  L 5.711538461538462 4.285714285714285  Z M 8.25 4.285714285714285  L 8.25 6.2142857142857135  L 10.153846153846155 6.2142857142857135  L 10.153846153846155 4.285714285714285  L 8.25 4.285714285714285  Z M 8.39873798076923 3.1506696428571432  C 8.440604967948719 3.108258928571428  8.461538461538462 3.058035714285713  8.461538461538462 3  L 8.461538461538462 1.0714285714285716  C 8.461538461538462 1.0133928571428572  8.440604967948719 0.9631696428571423  8.39873798076923 0.9207589285714284  C 8.356870993589745 0.8783482142857131  8.307291666666668 0.8571428571428568  8.25 0.8571428571428568  L 7.8269230769230775 0.8571428571428568  C 7.7696314102564115 0.8571428571428568  7.720052083333334 0.8783482142857131  7.678185096153846 0.9207589285714284  C 7.6363181089743595 0.9631696428571423  7.615384615384615 1.0133928571428572  7.615384615384615 1.0714285714285716  L 7.615384615384615 3  C 7.615384615384615 3.058035714285713  7.6363181089743595 3.108258928571428  7.678185096153846 3.1506696428571432  C 7.720052083333334 3.193080357142857  7.7696314102564115 3.214285714285715  7.8269230769230775 3.214285714285715  L 8.25 3.214285714285715  C 8.307291666666668 3.214285714285715  8.356870993589745 3.193080357142857  8.39873798076923 3.1506696428571432  Z M 10.748798076923077 1.96875  C 10.916266025641027 2.138392857142857  11 2.339285714285714  11 2.5714285714285716  L 11 11.142857142857142  C 11 11.375  10.916266025641027 11.575892857142858  10.748798076923077 11.745535714285715  C 10.58133012820513 11.915178571428571  10.383012820512821 12  10.153846153846155 12  L 0.8461538461538463 12  C 0.6169871794871796 12  0.4186698717948718 11.915178571428571  0.2512019230769231 11.745535714285715  C 0.08373397435897435 11.575892857142858  0 11.375  0 11.142857142857142  L 0 2.5714285714285716  C 0 2.339285714285714  0.08373397435897435 2.138392857142857  0.2512019230769231 1.96875  C 0.4186698717948718 1.7991071428571415  0.6169871794871796 1.7142857142857149  0.8461538461538463 1.7142857142857149  L 1.6923076923076925 1.7142857142857149  L 1.6923076923076925 1.0714285714285716  C 1.6923076923076925 0.7767857142857149  1.7958733974358974 0.5245535714285707  2.0030048076923075 0.31473214285714324  C 2.2101362179487185 0.10491071428571441  2.4591346153846154 0  2.75 0  L 3.173076923076923 0  C 3.4639423076923075 0  3.7129407051282057 0.10491071428571441  3.920072115384615 0.31473214285714324  C 4.1272035256410255 0.5245535714285707  4.230769230769231 0.7767857142857149  4.230769230769231 1.0714285714285716  L 4.230769230769231 1.7142857142857149  L 6.76923076923077 1.7142857142857149  L 6.76923076923077 1.0714285714285716  C 6.76923076923077 0.7767857142857149  6.8727964743589745 0.5245535714285707  7.079927884615385 0.31473214285714324  C 7.2870592948717965 0.10491071428571441  7.5360576923076925 0  7.8269230769230775 0  L 8.25 0  C 8.540865384615385 0  8.789863782051283 0.10491071428571441  8.996995192307692 0.31473214285714324  C 9.204126602564104 0.5245535714285707  9.307692307692308 0.7767857142857149  9.307692307692308 1.0714285714285716  L 9.307692307692308 1.7142857142857149  L 10.153846153846155 1.7142857142857149  C 10.383012820512821 1.7142857142857149  10.58133012820513 1.7991071428571415  10.748798076923077 1.96875  Z " fill-rule="nonzero" fill="#000000" stroke="none" transform="matrix(1 0 0 1 146 105 )" />
  </g>
</svg>