<?xml version="1.0" encoding="utf-8"?>
<svg version="1.1" xmlns:xlink="http://www.w3.org/1999/xlink" width="14px" height="11px" xmlns="http://www.w3.org/2000/svg">
  <g transform="matrix(1 0 0 1 -246 -54 )">
    <path d="M 13.92578125 7.1491815476190474  C 13.975260416666668 7.201016865079364  14 7.2624007936507935  14 7.333333333333334  L 14 8.904761904761905  C 14 8.975694444444446  13.975260416666668 9.037078373015873  13.92578125 9.08891369047619  C 13.876302083333336 9.140749007936506  13.817708333333336 9.166666666666668  13.75 9  L 3 9  L 3 10.738095238095237  C 3 10.809027777777779  2.9752604166666665 10.870411706349206  2.92578125 10.922247023809524  C 2.8763020833333335 10.974082341269842  2.8177083333333335 11  2.75 11  C 2.6875 11  2.625 10.972718253968255  2.5625 10.918154761904763  L 0.0703125 8.299107142857142  C 0.0234375 8.25  0 8.189980158730158  0 8.11904761904762  C 0 8.042658730158728  0.0234375 7.979910714285714  0.0703125 7.930803571428571  L 2.5703125 5.3117559523809526  C 2.6171875 5.26264880952381  2.6770833333333335 5.238095238095238  2.75 5.238095238095238  C 2.8177083333333335 5.238095238095238  2.8763020833333335 5.264012896825397  2.92578125 5.315848214285714  C 2.9752604166666665 5.367683531746032  3 5.42906746031746  3 5.5  L 3 7  L 13.75 7  C 13.817708333333336 7.071428571428571  13.876302083333336 7.097346230158731  13.92578125 7.1491815476190474  Z M 13.9296875 2.692708333333333  C 13.9765625 2.7418154761904754  14 2.804563492063492  14 2.8809523809523805  C 14 2.957341269841269  13.9765625 3.0200892857142856  13.9296875 3.069196428571428  L 11.4296875 5.6882440476190474  C 11.3828125 5.73735119047619  11.322916666666668 5.761904761904762  11.25 5.761904761904762  C 11.182291666666668 5.761904761904762  11.123697916666668 5.735987103174603  11.07421875 5.684151785714286  C 11.024739583333334 5.6323164682539675  11 5.5709325396825395  11 5.5  L 11 4  L 0.25 4  C 0.18229166666666669 3.928571428571428  0.12369791666666666 3.90265376984127  0.07421875 3.8508184523809526  C 0.024739583333333332 3.7989831349206344  0 3.7375992063492065  0 3.666666666666667  L 0 2.095238095238095  C 0 2.0243055555555545  0.024739583333333332 1.9629216269841265  0.07421875 1.9110863095238098  C 0.12369791666666666 1.8592509920634908  0.18229166666666669 1.833333333333333  0.25 2  L 11 2  L 11 0.2619047619047622  C 11 0.18551587301587236  11.0234375 0.12276785714285732  11.0703125 0.07366071428571463  C 11.1171875 0.024553571428571952  11.177083333333334 0  11.25 0  C 11.3125 0  11.375 0.027281746031745935  11.4375 0.0818452380952378  L 13.9296875 2.692708333333333  Z " fill-rule="nonzero" fill="#000000" stroke="none" transform="matrix(1 0 0 1 246 54 )" />
  </g>
</svg>