<?xml version="1.0" encoding="utf-8"?>
<svg version="1.1" xmlns:xlink="http://www.w3.org/1999/xlink" width="16px" height="16px" viewBox="37 165  16 16" xmlns="http://www.w3.org/2000/svg">
  <path d="M 45 165  C 49.48 165  53 168.52  53 173  C 53 177.48  49.48 181  45 181  C 40.52 181  37 177.48  37 173  C 37 168.52  40.52 165  45 165  Z " fill-rule="nonzero" fill="#ffffff" stroke="none" />
  <path d="M 45 165.5  C 49.2 165.5  52.5 168.8  52.5 173  C 52.5 177.2  49.2 180.5  45 180.5  C 40.8 180.5  37.5 177.2  37.5 173  C 37.5 168.8  40.8 165.5  45 165.5  Z " stroke-width="1" stroke="#000000" fill="none" />
  <path d="M 45 177  C 42.76 177  41 175.24  41 173  C 41 170.76  42.76 169  45 169  C 47.24 169  49 170.76  49 173  C 49 175.24  47.24 177  45 177  " fill-rule="nonzero" fill="#000000" stroke="none" />
</svg>