<?xml version="1.0" encoding="utf-8"?>
<svg version="1.1" xmlns:xlink="http://www.w3.org/1999/xlink" width="16px" height="16px" viewBox="303 165  16 16" xmlns="http://www.w3.org/2000/svg">
  <path d="M 311 165  C 315.48 165  319 168.52  319 173  C 319 177.48  315.48 181  311 181  C 306.52 181  303 177.48  303 173  C 303 168.52  306.52 165  311 165  Z " fill-rule="nonzero" fill="#f0f0f0" stroke="none" />
  <path d="M 311 165.5  C 315.2 165.5  318.5 168.8  318.5 173  C 318.5 177.2  315.2 180.5  311 180.5  C 306.8 180.5  303.5 177.2  303.5 173  C 303.5 168.8  306.8 165.5  311 165.5  Z " stroke-width="1" stroke="#000000" fill="none" />
  <path d="M 311 177  C 308.76 177  307 175.24  307 173  C 307 170.76  308.76 169  311 169  C 313.24 169  315 170.76  315 173  C 315 175.24  313.24 177  311 177  " fill-rule="nonzero" fill="#000000" stroke="none" />
</svg>