<?xml version="1.0" encoding="utf-8"?>
<svg version="1.1" xmlns:xlink="http://www.w3.org/1999/xlink" width="16px" height="16px" viewBox="170 165  16 16" xmlns="http://www.w3.org/2000/svg">
  <path d="M 178 165  C 182.48 165  186 168.52  186 173  C 186 177.48  182.48 181  178 181  C 173.52 181  170 177.48  170 173  C 170 168.52  173.52 165  178 165  Z " fill-rule="nonzero" fill="#f0f0f0" stroke="none" />
  <path d="M 178 165.5  C 182.2 165.5  185.5 168.8  185.5 173  C 185.5 177.2  182.2 180.5  178 180.5  C 173.8 180.5  170.5 177.2  170.5 173  C 170.5 168.8  173.8 165.5  178 165.5  Z " stroke-width="1" stroke="#000000" fill="none" />
  <path d="M 178 177  C 175.76 177  174 175.24  174 173  C 174 170.76  175.76 169  178 169  C 180.24 169  182 170.76  182 173  C 182 175.24  180.24 177  178 177  " fill-rule="nonzero" fill="#000000" stroke="none" />
</svg>